<svg xmlns="http://www.w3.org/2000/svg" width="1371" height="765" viewBox="0 0 1371 765">
<g>
<path d="M 886.72 476.91 C881.44,478.36 867.00,478.79 856.55,477.81 C846.98,476.91 846.13,476.62 846.08,474.30 C845.47,444.65 845.65,296.72 846.30,294.75 C846.79,293.24 847.60,292.00 848.10,292.00 C848.63,292.00 849.00,329.78 849.00,383.50 L 849.00 475.00 L 889.00 475.00 L 889.00 438.17 C889.00,417.91 889.27,401.06 889.60,400.74 C889.93,400.41 890.86,400.39 891.68,400.71 C892.79,401.13 892.86,401.47 891.96,402.03 C891.29,402.44 891.03,403.23 891.37,403.79 C892.23,405.19 892.48,470.99 891.63,473.63 C891.17,475.05 889.53,476.14 886.72,476.91 ZM 892.00 365.96 L 929.50 366.55 L 889.00 367.00 L 889.00 323.00 L 931.22 323.00 C968.59,323.00 973.20,323.17 971.35,324.46 C969.63,325.68 962.72,325.98 931.59,326.21 C899.41,326.46 893.79,326.72 892.98,328.00 C892.46,328.83 892.02,337.70 892.02,347.73 ZM 451.98 447.75 C451.97,449.58 450.04,453.25 450.02,451.50 C450.01,450.96 451.16,447.02 452.58,442.75 L 455.16 435.00 L 489.50 435.00 C508.39,435.00 524.48,434.75 525.27,434.45 C526.31,434.05 527.10,435.25 528.08,438.70 C528.84,441.34 529.47,443.73 529.49,444.00 C529.51,444.27 529.89,445.06 530.32,445.75 C530.76,446.44 530.68,447.00 530.14,447.00 C529.60,447.00 528.38,444.94 527.42,442.43 L 525.68 437.86 L 490.89 438.18 C466.39,438.41 455.76,438.84 454.95,439.65 C454.32,440.28 453.73,441.97 453.65,443.40 C453.57,444.83 453.16,446.00 452.75,446.00 C452.34,446.00 451.99,446.79 451.98,447.75 ZM 289.07 409.06 C291.06,410.32 286.46,410.15 282.50,408.82 C280.85,408.26 277.02,407.73 274.00,407.65 L 268.50 407.50 L 267.96 362.00 L 272.73 362.02 C275.80,362.03 277.01,362.34 276.14,362.89 C274.99,363.62 274.99,363.84 276.14,364.30 C277.00,364.64 277.06,364.87 276.31,364.92 C275.65,364.96 274.84,364.55 274.50,364.00 C273.57,362.49 272.00,362.80 272.00,364.50 C272.00,365.33 271.55,366.00 271.00,366.00 C270.37,366.00 270.00,373.29 270.00,385.86 L 270.00 405.72 L 276.15 406.36 C279.53,406.71 285.04,407.07 288.40,407.16 C292.27,407.26 293.24,407.47 291.07,407.74 C288.54,408.04 288.01,408.39 289.07,409.06 ZM 576.12 298.25 C576.05,299.21 575.55,300.00 575.00,300.00 C573.78,300.00 573.66,296.33 574.87,295.58 C575.34,295.29 575.53,294.00 575.29,292.71 C574.59,289.07 580.36,285.40 582.21,288.31 C582.72,289.11 582.97,289.13 582.98,288.39 C582.99,287.71 584.08,287.48 585.75,287.81 C587.26,288.10 595.36,288.51 603.75,288.72 C626.94,289.30 622.64,291.00 598.00,291.00 C586.45,291.00 577.00,291.34 577.00,291.76 C577.00,292.17 577.42,293.97 577.93,295.74 C578.44,297.52 578.47,299.21 578.00,299.50 C577.53,299.79 576.94,299.23 576.69,298.26 C576.26,296.60 576.23,296.60 576.12,298.25 ZM 439.50 476.67 C438.40,476.95 430.08,477.37 421.00,477.60 C408.06,477.94 403.85,477.72 401.50,476.59 C398.79,475.30 400.60,475.15 420.18,475.08 C441.78,475.00 441.87,474.99 442.50,472.75 C443.94,467.68 448.31,455.98 448.65,456.31 C448.84,456.51 448.17,459.11 447.16,462.09 C446.14,465.06 445.39,468.49 445.48,469.70 C445.58,470.92 445.30,471.68 444.86,471.41 C444.42,471.14 443.77,472.06 443.42,473.46 C443.07,474.86 442.49,476.03 442.14,476.08 C441.79,476.12 440.60,476.38 439.50,476.67 ZM 517.00 290.00 C517.00,290.64 507.85,291.00 491.56,291.00 C475.68,291.00 465.89,290.62 465.50,290.00 C465.10,289.36 468.30,289.00 474.36,289.00 C481.00,289.00 483.98,288.63 484.34,287.75 C484.74,286.75 484.86,286.75 484.92,287.75 C484.97,288.53 486.52,289.00 489.06,289.00 C491.51,289.00 492.87,288.60 492.50,288.00 C492.16,287.45 492.36,287.00 492.94,287.00 C493.52,287.00 494.01,287.56 494.02,288.25 C494.03,289.12 494.31,289.07 494.94,288.07 C495.69,286.88 496.52,286.84 499.79,287.82 C501.96,288.47 506.72,289.00 510.37,289.00 C514.12,289.00 517.00,289.43 517.00,290.00 ZM 583.13 476.82 C582.49,477.84 578.83,478.07 566.90,477.82 C547.22,477.41 542.71,477.08 541.59,475.98 C541.05,475.44 549.52,474.96 562.34,474.79 C574.25,474.63 583.99,474.73 583.99,475.00 C583.98,475.27 583.59,476.09 583.13,476.82 ZM 832.00 290.00 C832.00,291.27 792.08,291.34 790.07,290.07 C789.12,289.47 791.39,288.97 796.82,288.58 C801.32,288.26 808.65,287.74 813.12,287.42 C818.36,287.05 821.62,287.22 822.32,287.92 C822.91,288.51 825.34,289.00 827.70,289.00 C830.07,289.00 832.00,289.45 832.00,290.00 ZM 668.00 476.50 C666.98,477.73 663.51,478.00 648.54,478.00 C638.53,478.00 630.03,477.70 629.67,477.33 C627.70,475.37 630.75,475.00 649.12,475.00 C666.90,475.00 669.10,475.18 668.00,476.50 ZM 780.00 476.50 C778.19,478.68 743.14,478.65 741.21,476.46 C740.08,475.18 742.53,475.00 760.58,475.00 C778.84,475.00 781.10,475.17 780.00,476.50 ZM 990.49 104.77 C992.03,107.12 993.05,109.29 992.75,109.59 C992.45,109.89 991.90,109.65 991.53,109.05 C991.16,108.45 990.44,108.23 989.93,108.54 C989.42,108.86 989.00,108.02 989.00,106.68 C989.00,104.10 986.80,101.53 985.61,102.73 C985.21,103.12 985.16,102.74 985.49,101.88 C985.82,101.02 985.40,99.74 984.55,99.04 C983.22,97.94 983.00,98.13 983.00,100.38 C983.00,106.37 980.03,100.99 979.91,94.78 C979.87,92.95 968.07,82.00 966.14,82.00 C965.51,82.00 965.00,81.62 965.00,81.16 C965.00,79.91 960.23,77.97 958.64,78.58 C957.82,78.90 957.05,78.29 956.73,77.06 C956.43,75.93 956.57,75.00 957.05,75.00 C958.64,75.00 963.00,77.31 963.00,78.16 C963.00,78.62 963.63,79.00 964.40,79.00 C965.16,79.00 966.85,80.12 968.15,81.48 C969.44,82.85 970.92,83.97 971.43,83.98 C972.70,84.01 985.00,96.59 985.00,97.87 C985.00,98.44 985.61,99.26 986.35,99.70 C987.09,100.14 988.96,102.42 990.49,104.77 ZM 937.31 698.29 C936.65,698.06 935.21,698.35 934.12,698.94 C932.80,699.64 931.91,699.67 931.50,699.00 C931.16,698.45 931.78,698.00 932.88,698.00 C935.92,698.00 936.32,696.30 933.45,695.58 C928.03,694.22 932.41,692.89 941.45,693.16 C948.62,693.38 950.43,693.71 949.51,694.63 C948.02,696.13 938.92,698.85 937.31,698.29 ZM 978.41 675.41 C974.78,679.03 971.53,682.00 971.19,682.00 C970.85,682.00 972.88,679.64 975.70,676.75 C980.65,671.69 980.81,671.33 980.40,666.75 C980.03,662.54 980.21,662.00 981.97,662.00 C983.67,662.00 983.86,662.46 983.31,665.25 C982.73,668.16 982.83,668.36 984.28,667.17 C985.16,666.44 987.32,663.61 989.07,660.89 C990.82,658.16 992.43,656.10 992.65,656.32 C993.30,656.97 991.86,660.00 990.89,660.00 C990.40,660.00 990.00,660.67 990.00,661.50 C990.00,662.33 989.55,663.00 989.00,663.00 C988.45,663.00 988.00,663.69 988.00,664.53 C988.00,665.37 987.33,666.32 986.50,666.64 C985.67,666.95 985.00,667.57 985.00,668.01 C985.00,668.45 982.03,671.78 978.41,675.41 ZM 702.54 366.34 C701.50,366.75 701.01,368.94 700.79,374.20 C700.60,379.08 700.23,380.85 699.70,379.53 C699.02,377.87 698.74,377.79 697.96,379.03 C697.45,379.84 697.02,380.07 697.02,379.55 C696.98,377.48 703.48,355.00 704.11,355.00 C705.30,355.00 706.15,358.45 705.06,358.81 C704.48,359.01 704.00,360.66 704.00,362.48 C704.00,364.45 703.41,366.01 702.54,366.34 ZM 374.14 132.40 C374.82,133.91 374.85,136.95 374.21,141.58 C373.32,148.04 373.25,148.18 373.13,143.75 C373.01,139.26 371.77,137.50 370.66,140.25 C370.38,140.94 370.13,140.38 370.09,139.00 C370.01,135.78 372.72,124.25 374.06,122.13 C374.94,120.74 375.02,120.80 374.59,122.50 C373.31,127.52 373.18,130.31 374.14,132.40 ZM 435.43 696.95 C436.50,697.34 436.95,697.91 436.43,698.22 C435.48,698.80 425.78,696.10 422.82,694.43 C420.67,693.21 435.95,692.68 439.15,693.86 C441.19,694.62 441.02,694.78 437.46,695.47 C434.33,696.08 433.91,696.39 435.43,696.95 ZM 396.51 89.98 C396.17,90.53 394.90,91.50 393.69,92.13 C391.65,93.19 391.67,93.08 394.00,90.54 C399.13,84.94 419.24,71.39 415.20,76.26 C414.15,77.52 414.16,77.90 415.21,78.32 C415.92,78.61 414.99,78.88 413.15,78.92 C411.31,78.96 408.48,79.94 406.86,81.10 C404.49,82.79 404.15,83.47 405.10,84.62 C406.61,86.44 406.27,86.74 402.00,87.27 C399.93,87.53 398.61,88.21 398.77,88.93 C398.93,89.60 398.62,89.88 398.09,89.56 C397.57,89.23 396.86,89.42 396.51,89.98 ZM 431.00 70.94 C430.17,70.84 428.26,71.08 426.75,71.48 C421.12,72.99 424.24,71.00 430.61,69.04 C436.92,67.09 444.06,66.27 442.68,67.66 C442.31,68.02 442.44,68.83 442.96,69.45 C443.60,70.23 443.21,70.68 441.70,70.89 C439.29,71.22 433.37,71.25 431.00,70.94 ZM 786.78 463.79 L 785.65 460.57 L 784.34 464.04 L 783.02 467.50 L 783.63 464.00 C783.96,462.08 785.20,457.42 786.37,453.65 L 788.50 446.79 L 788.78 456.90 C788.93,462.45 788.79,467.00 788.47,467.00 C788.16,467.00 787.39,465.55 786.78,463.79 ZM 1008.34 550.69 C1007.37,563.32 1005.57,562.53 1006.32,549.81 C1006.97,538.79 1007.56,536.00 1009.23,536.00 C1009.84,536.00 1010.00,537.27 1009.62,539.16 C1009.27,540.89 1008.70,546.08 1008.34,550.69 ZM 583.43 327.28 C583.56,328.54 583.33,330.45 582.90,331.53 C582.45,332.66 582.15,329.36 582.21,323.78 C582.25,318.44 582.63,314.27 583.05,314.53 C583.72,314.95 585.77,322.22 586.38,326.35 C586.50,327.23 586.92,328.26 587.30,328.64 C588.30,329.63 588.16,331.00 587.08,331.00 C586.57,331.00 585.86,329.65 585.50,328.00 C584.73,324.50 583.06,323.92 583.43,327.28 ZM 796.80 428.25 C796.82,433.61 796.42,438.00 795.92,438.00 C795.41,438.00 795.00,436.88 795.00,435.50 C795.00,432.88 793.54,432.10 792.65,434.25 C791.44,437.18 793.47,428.06 795.04,423.50 L 796.77 418.50 ZM 628.00 471.17 C628.00,473.06 626.17,471.82 625.60,469.54 C625.18,467.88 624.49,467.26 623.49,467.64 C622.26,468.11 622.00,467.04 622.00,461.55 C622.00,457.86 622.40,455.13 622.90,455.44 C623.69,455.93 625.72,462.88 626.38,467.35 C626.50,468.23 626.92,469.26 627.30,469.64 C627.69,470.02 628.00,470.71 628.00,471.17 ZM 1092.61 407.91 C1090.84,409.38 1081.00,410.47 1081.00,409.20 C1081.00,408.62 1079.99,407.94 1078.75,407.71 C1077.51,407.47 1079.20,407.21 1082.50,407.13 C1085.80,407.05 1091.54,406.70 1095.25,406.35 C1100.38,405.86 1102.00,406.02 1102.00,406.98 C1102.00,407.91 1100.89,408.08 1097.89,407.60 C1095.63,407.24 1093.25,407.38 1092.61,407.91 ZM 1000.27 639.98 C997.85,649.59 996.11,647.28 996.90,635.50 C997.19,631.16 997.49,630.19 997.97,632.00 C998.37,633.52 999.25,634.39 1000.21,634.23 C1001.64,633.99 1001.65,634.52 1000.27,639.98 ZM 538.60 469.41 C538.94,470.28 538.72,471.00 538.11,471.00 C537.50,471.00 537.00,470.55 537.00,470.00 C537.00,469.45 536.28,469.00 535.39,469.00 C534.20,469.00 533.94,468.39 534.38,466.63 C534.72,465.26 533.93,461.19 532.49,456.96 C532.32,456.48 532.17,456.02 532.02,455.60 C530.32,450.61 529.90,449.38 530.26,449.08 C530.37,448.99 530.57,448.99 530.84,449.00 C530.91,449.00 530.98,449.00 531.06,449.00 C531.64,449.00 531.86,449.42 531.54,449.93 C531.23,450.44 531.43,451.15 532.00,451.50 C532.57,451.85 532.79,452.53 532.50,453.00 C532.21,453.47 532.43,454.15 533.00,454.50 C533.57,454.85 533.79,455.53 533.50,456.00 C533.21,456.47 533.43,457.15 534.00,457.50 C534.57,457.85 534.77,458.56 534.46,459.07 C534.14,459.58 534.34,460.00 534.91,460.00 C535.47,460.00 535.68,460.67 535.36,461.50 C535.05,462.33 535.24,463.00 535.78,463.00 C536.33,463.00 537.06,464.08 537.39,465.41 C537.72,466.73 538.27,468.53 538.60,469.41 ZM 374.07 640.25 C374.56,641.96 374.78,643.55 374.55,643.78 C373.80,644.53 371.18,634.33 370.59,628.35 C370.27,625.13 370.27,623.06 370.59,623.75 C370.91,624.44 371.87,625.00 372.72,625.00 C374.02,625.00 374.19,626.01 373.73,631.07 C373.43,634.40 373.58,638.54 374.07,640.25 ZM 485.91 356.50 C485.98,361.73 485.80,366.00 485.52,366.00 C485.23,366.00 485.00,364.68 485.00,363.06 C485.00,359.73 483.22,358.04 481.90,360.12 C481.42,360.88 481.02,361.21 481.02,360.86 C480.99,359.76 485.06,347.00 485.44,347.00 C485.63,347.00 485.85,351.27 485.91,356.50 ZM 749.12 381.48 C749.68,383.52 749.96,385.37 749.73,385.60 C749.39,385.94 746.41,375.83 744.40,367.50 C743.99,365.79 744.11,365.84 745.26,367.78 C746.63,370.10 748.28,369.88 747.36,367.50 C747.09,366.79 747.42,365.86 748.09,365.44 C749.04,364.86 749.18,366.19 748.71,371.23 C748.37,374.82 748.56,379.44 749.12,381.48 ZM 497.18 353.75 C496.63,351.79 496.47,351.94 495.91,355.00 C495.11,359.33 494.85,358.32 494.60,350.00 C494.49,346.42 494.04,342.71 493.59,341.75 C493.09,340.65 493.20,340.00 493.89,340.00 C494.50,340.00 494.95,340.34 494.88,340.75 C494.82,341.16 494.87,341.84 495.01,342.25 C495.14,342.66 495.34,343.34 495.46,343.75 C495.57,344.16 496.23,345.85 496.91,347.50 C497.59,349.15 498.21,351.40 498.28,352.50 C498.35,353.60 498.88,354.83 499.45,355.23 C500.12,355.70 500.01,355.97 499.16,355.98 C498.42,355.99 497.53,354.99 497.18,353.75 ZM 812.73 371.50 C812.87,376.56 812.57,380.00 811.98,380.00 C811.44,380.00 810.98,378.76 810.96,377.25 L 810.93 374.50 L 809.46 377.00 L 807.98 379.50 L 808.60 376.50 C809.34,372.89 812.07,363.00 812.32,363.00 C812.42,363.01 812.60,366.83 812.73,371.50 ZM 477.75 380.54 C477.85,385.74 477.79,390.00 477.63,390.00 C476.54,390.00 475.99,388.06 475.95,384.08 L 475.91 379.50 L 474.54 382.50 C473.78,384.15 473.13,385.24 473.08,384.92 C473.00,384.35 477.00,371.71 477.39,371.29 C477.50,371.18 477.66,375.34 477.75,380.54 ZM 760.21 410.10 C760.12,411.53 759.64,413.78 759.14,415.10 C758.32,417.27 758.07,416.94 756.53,411.68 C755.58,408.47 755.04,405.63 755.31,405.35 C755.59,405.08 756.11,406.24 756.49,407.94 C757.39,412.04 758.54,411.08 760.00,405.00 C760.66,402.25 761.60,400.00 762.10,400.00 C763.32,400.00 763.24,401.73 761.98,402.51 C761.42,402.86 761.24,403.58 761.57,404.11 C761.90,404.65 761.77,405.63 761.27,406.29 C760.77,406.96 760.29,408.67 760.21,410.10 ZM 1102.98 364.25 C1102.96,367.50 1101.47,369.66 1100.67,367.58 C1100.34,366.71 1098.95,366.00 1097.59,366.00 C1095.74,366.00 1095.16,365.50 1095.27,364.00 C1095.40,362.38 1096.14,362.00 1099.21,362.00 C1102.48,362.00 1103.00,362.31 1102.98,364.25 ZM 601.07 383.11 C600.39,382.01 600.16,382.01 599.80,383.09 C599.02,385.43 598.33,382.64 598.19,376.57 C598.03,369.69 599.10,370.16 601.34,377.96 C602.86,383.28 602.73,385.80 601.07,383.11 ZM 592.02 354.75 C592.01,355.44 591.66,356.00 591.25,356.00 C590.84,356.00 590.46,353.07 590.40,349.50 C590.35,345.92 590.59,343.00 590.94,343.00 C591.77,343.00 595.06,355.28 594.40,355.94 C594.12,356.21 593.47,355.78 592.96,354.97 C592.33,353.97 592.03,353.90 592.02,354.75 ZM 409.02 445.43 C407.67,449.54 405.31,451.70 406.33,447.91 C406.68,446.58 406.99,443.48 407.00,441.00 C407.02,437.55 407.28,436.85 408.09,438.00 C408.89,439.13 409.28,439.19 409.66,438.25 C409.94,437.56 410.61,437.00 411.14,437.00 C411.68,437.00 411.77,437.56 411.34,438.25 C410.91,438.94 410.47,440.04 410.38,440.69 C410.28,441.35 409.67,443.48 409.02,445.43 ZM 1035.16 320.12 C1036.01,320.66 1036.08,320.98 1035.35,320.98 C1034.71,320.99 1033.26,319.54 1032.11,317.75 C1030.14,314.67 1030.03,314.62 1030.02,316.92 C1029.99,320.64 1028.77,318.55 1028.48,314.29 C1028.34,312.20 1027.90,309.71 1027.51,308.75 C1027.06,307.67 1027.23,307.00 1027.95,307.00 C1028.59,307.00 1028.84,307.45 1028.50,308.00 C1028.16,308.55 1028.39,309.00 1029.00,309.00 C1029.61,309.00 1029.84,309.45 1029.50,310.00 C1029.16,310.55 1029.28,311.00 1029.76,311.00 C1030.60,311.00 1034.05,317.36 1033.90,318.64 C1033.86,318.99 1034.43,319.66 1035.16,320.12 ZM 447.68 339.34 C448.04,339.70 447.78,340.00 447.10,340.00 C446.27,340.00 446.10,339.26 446.58,337.75 C446.98,336.51 447.24,333.83 447.16,331.78 C447.05,328.87 447.34,328.19 448.51,328.64 C449.33,328.96 450.00,328.69 450.00,328.05 C450.00,327.41 450.43,327.15 450.95,327.47 C451.93,328.07 449.80,335.34 448.00,337.51 C447.46,338.15 447.31,338.98 447.68,339.34 ZM 541.05 353.18 C541.55,354.93 541.80,356.54 541.59,356.74 C541.27,357.06 540.25,354.39 536.53,343.50 L 535.85 341.50 L 537.07 343.50 C538.91,346.50 538.91,346.50 540.48,344.43 C541.84,342.63 541.94,342.75 541.97,346.25 C541.99,348.31 541.58,350.00 541.07,350.00 C540.50,350.00 540.49,351.23 541.05,353.18 ZM 676.86 459.25 C676.96,464.61 676.80,469.00 676.52,469.00 C676.23,469.00 675.99,467.54 675.98,465.75 C675.97,461.98 674.10,458.10 673.94,461.50 C673.88,462.60 673.64,463.02 673.40,462.44 C673.16,461.86 673.80,458.71 674.83,455.44 L 676.69 449.50 ZM 720.51 415.00 C719.77,415.83 718.97,417.85 718.73,419.50 C718.49,421.15 718.23,418.56 718.15,413.75 C718.07,408.94 718.36,405.00 718.79,405.00 C719.23,405.00 720.10,406.91 720.72,409.25 C721.63,412.64 721.58,413.80 720.51,415.00 ZM 644.88 383.75 C644.95,388.29 644.86,392.00 644.69,392.00 C644.08,392.00 640.97,377.69 641.48,377.19 C641.77,376.90 642.00,377.19 642.00,377.83 C642.00,379.66 643.80,379.20 644.31,377.25 C644.56,376.29 644.82,379.21 644.88,383.75 ZM 318.00 425.12 C318.00,426.16 317.89,426.96 317.75,426.91 C317.61,426.86 314.76,424.72 311.41,422.16 C308.06,419.60 304.46,416.93 303.41,416.23 C301.70,415.09 301.74,415.07 303.75,416.01 C305.33,416.76 306.59,416.75 308.00,416.00 C309.36,415.27 310.00,415.26 310.00,415.96 C310.00,416.53 309.21,417.00 308.25,417.00 C305.70,417.01 311.71,421.84 315.25,422.63 C317.05,423.04 318.00,423.90 318.00,425.12 ZM 1021.58 482.17 C1021.54,482.53 1021.10,483.21 1020.60,483.67 C1020.08,484.15 1019.97,483.46 1020.34,482.00 C1020.69,480.62 1021.01,477.70 1021.07,475.50 C1021.12,473.30 1021.41,472.13 1021.71,472.90 C1022.12,473.94 1022.59,473.70 1023.49,472.02 C1024.28,470.53 1024.96,470.13 1025.42,470.86 C1025.80,471.49 1025.74,472.00 1025.27,472.00 C1024.81,472.00 1024.36,472.79 1024.29,473.75 C1024.21,474.71 1023.59,476.85 1022.91,478.50 C1022.23,480.15 1021.63,481.80 1021.58,482.17 ZM 758.07 400.00 C757.56,400.00 756.98,400.79 756.77,401.75 C756.52,402.93 756.21,402.58 755.82,400.66 C755.17,397.44 756.87,390.80 758.16,391.60 C759.31,392.31 759.23,400.00 758.07,400.00 ZM 683.71 434.44 C682.71,432.65 682.64,432.66 681.84,434.54 C680.66,437.31 681.94,430.55 683.54,425.52 L 684.83 421.50 L 684.78 428.89 C684.75,434.53 684.50,435.85 683.71,434.44 ZM 558.55 401.14 C559.36,403.43 559.86,405.48 559.65,405.68 C559.34,405.99 555.77,396.92 554.27,392.00 C553.86,390.67 553.93,390.67 554.89,392.00 C555.78,393.23 555.99,393.06 556.07,391.00 C556.17,388.64 556.22,388.67 557.08,391.50 C557.58,393.15 557.78,395.05 557.53,395.73 C557.28,396.41 557.74,398.84 558.55,401.14 ZM 713.14 386.63 C711.34,389.10 710.29,387.54 710.29,382.40 C710.29,379.36 710.63,377.25 711.05,377.69 C712.27,378.98 713.83,385.67 713.14,386.63 ZM 733.56 323.94 C734.51,327.30 735.09,330.24 734.86,330.48 C734.62,330.71 733.38,327.08 732.09,322.41 C730.80,317.74 730.05,313.61 730.43,313.24 C731.37,312.30 732.93,315.03 732.33,316.58 C732.07,317.27 732.62,320.58 733.56,323.94 ZM 526.10 312.35 C527.63,317.70 526.34,316.24 524.00,310.00 C522.75,306.66 522.02,303.65 522.37,303.30 C522.71,302.95 523.00,303.24 523.00,303.94 C523.00,304.64 523.63,304.97 524.40,304.68 C525.43,304.28 525.73,304.85 525.52,306.74 C525.37,308.17 525.63,310.70 526.10,312.35 ZM 692.08 405.54 C691.34,403.60 691.32,403.60 690.15,405.54 C689.11,407.27 689.05,407.17 689.61,404.68 C689.96,403.14 690.80,400.00 691.47,397.72 L 692.70 393.58 L 692.76 400.54 C692.80,404.62 692.52,406.69 692.08,405.54 ZM 737.13 466.66 C738.53,468.35 736.89,468.37 735.42,466.68 C734.20,465.29 732.56,455.23 733.75,456.41 C734.16,456.83 734.54,457.47 734.58,457.83 C734.63,458.20 735.20,459.80 735.86,461.39 C736.52,462.98 736.82,464.51 736.54,464.80 C736.25,465.08 736.52,465.92 737.13,466.66 ZM 802.98 402.75 C802.97,401.90 802.63,401.99 801.92,403.00 C800.70,404.76 801.67,398.82 803.15,395.50 C803.90,393.83 803.98,393.95 803.66,396.25 C803.45,397.76 803.66,399.00 804.14,399.00 C804.61,399.00 805.00,400.12 805.00,401.50 C805.00,402.88 804.55,404.00 804.00,404.00 C803.45,404.00 802.99,403.44 802.98,402.75 ZM 565.98 415.25 C565.95,420.20 564.28,420.28 562.63,415.42 C560.68,409.71 560.64,408.35 562.54,412.50 C563.29,414.15 563.93,414.94 563.95,414.25 C564.04,411.98 566.00,412.95 565.98,415.25 ZM 739.71 342.16 C740.50,343.11 740.65,344.64 740.14,346.55 C739.38,349.40 739.33,349.35 738.13,344.49 C736.02,335.87 735.95,335.35 737.26,338.10 C737.94,339.54 739.05,341.36 739.71,342.16 ZM 351.12 479.90 C351.73,481.66 352.05,483.28 351.83,483.50 C351.61,483.72 350.60,481.56 349.59,478.70 C348.57,475.84 347.53,472.93 347.26,472.24 C346.95,471.42 347.34,471.19 348.39,471.60 C349.27,471.94 350.00,473.22 350.00,474.46 C350.00,475.69 350.50,478.14 351.12,479.90 ZM 400.76 468.43 C401.08,468.74 400.91,469.00 400.40,469.00 C399.89,469.00 399.42,467.20 399.36,465.00 C399.25,460.91 399.59,460.45 401.72,461.80 C402.66,462.40 402.63,463.17 401.56,465.22 C400.81,466.67 400.45,468.12 400.76,468.43 ZM 573.24 439.00 C573.54,442.03 573.69,444.60 573.58,444.73 C573.47,444.85 572.57,442.69 571.57,439.93 C570.58,437.16 570.04,434.62 570.38,434.28 C570.72,433.94 571.03,434.53 571.07,435.58 C571.14,437.41 571.18,437.41 571.92,435.50 C572.49,434.04 572.84,434.97 573.24,439.00 ZM 740.98 338.75 C740.99,339.99 740.55,341.00 740.00,341.00 C738.75,341.00 738.75,339.94 740.00,338.00 C740.78,336.79 740.97,336.93 740.98,338.75 ZM 671.11 327.71 C671.72,328.32 672.05,329.34 671.84,329.98 C671.34,331.47 670.00,330.12 670.00,328.13 C670.00,327.01 670.30,326.90 671.11,327.71 ZM 722.46 417.07 C721.60,418.46 721.00,418.20 721.00,416.44 C721.00,415.58 721.46,415.16 722.02,415.51 C722.58,415.86 722.77,416.56 722.46,417.07 Z" fill="rgb(56,30,85)"/>
<path d="M 289.07 409.06 C288.01,408.39 288.54,408.04 291.07,407.74 C293.24,407.47 292.27,407.26 288.40,407.16 C285.04,407.07 279.53,406.71 276.15,406.36 L 270.00 405.72 L 270.00 385.86 C270.00,373.29 270.37,366.00 271.00,366.00 C271.55,366.00 272.00,365.33 272.00,364.50 C272.00,362.80 273.57,362.49 274.50,364.00 C274.84,364.55 275.65,364.96 276.31,364.92 C277.06,364.87 277.00,364.64 276.14,364.30 C274.99,363.84 274.99,363.62 276.14,362.89 C277.01,362.34 275.80,362.03 272.73,362.02 L 267.96 362.00 L 271.35 362.00 C279.69,362.00 302.14,354.56 306.79,350.25 C307.54,349.56 308.59,349.00 309.14,349.00 C309.69,349.00 310.75,348.44 311.49,347.75 C312.23,347.06 314.07,345.60 315.58,344.50 C319.32,341.78 326.95,334.17 330.00,330.14 C331.38,328.32 332.95,326.30 333.50,325.66 C334.05,325.02 335.14,323.26 335.92,321.75 C336.70,320.24 337.71,319.00 338.17,319.00 C338.63,319.00 339.00,318.36 339.00,317.58 C339.00,316.80 339.34,316.02 339.75,315.83 C340.53,315.49 348.04,300.65 348.14,299.27 C348.17,298.85 348.70,297.60 349.31,296.50 C349.93,295.40 350.46,294.27 350.51,294.00 C350.77,292.30 353.40,285.32 354.12,284.41 C354.60,283.81 354.69,283.02 354.32,282.66 C353.96,282.30 354.13,282.00 354.71,282.00 C355.28,282.00 356.09,280.09 356.51,277.75 C356.93,275.41 357.42,273.05 357.59,272.50 C357.76,271.95 358.16,270.15 358.48,268.50 C358.80,266.85 359.31,264.83 359.62,264.00 C359.93,263.17 360.40,260.73 360.66,258.56 C360.92,256.39 361.54,253.86 362.03,252.94 C362.53,252.02 362.68,251.01 362.37,250.70 C362.05,250.39 362.29,248.64 362.88,246.82 C363.47,244.99 364.19,240.12 364.48,236.00 C364.77,231.88 365.22,226.48 365.48,224.00 C365.74,221.52 366.16,215.68 366.42,211.00 C366.68,206.32 367.16,198.90 367.47,194.50 C367.79,190.10 368.26,176.47 368.53,164.20 C368.75,154.17 369.28,145.54 370.10,138.56 C370.09,138.72 370.09,138.87 370.09,139.00 C370.13,140.38 370.38,140.94 370.66,140.25 C371.77,137.50 373.01,139.26 373.13,143.75 C373.25,148.18 373.32,148.04 374.21,141.58 C374.85,136.95 374.82,133.91 374.14,132.40 C373.18,130.31 373.31,127.52 374.59,122.50 C375.02,120.80 374.94,120.74 374.06,122.13 C373.11,123.64 371.48,129.86 370.63,134.50 C371.64,127.64 372.98,122.79 374.61,120.25 C375.40,119.01 375.80,118.00 375.50,118.00 C374.58,118.00 378.18,111.55 379.56,110.74 C380.26,110.33 381.14,108.64 381.50,106.99 C381.86,105.35 382.57,104.00 383.08,104.00 C383.59,104.00 384.00,103.53 384.00,102.96 C384.00,101.52 385.45,99.69 392.40,92.74 C392.63,92.67 393.07,92.46 393.69,92.13 C394.90,91.50 396.17,90.53 396.51,89.98 C396.86,89.42 397.57,89.23 398.09,89.56 C398.62,89.88 398.93,89.60 398.77,88.93 C398.61,88.21 399.93,87.53 402.00,87.27 C406.27,86.74 406.61,86.44 405.10,84.62 C404.15,83.47 404.49,82.79 406.86,81.10 C408.48,79.94 411.31,78.96 413.15,78.92 C414.99,78.88 415.92,78.61 415.21,78.32 C414.16,77.90 414.15,77.52 415.20,76.26 C416.25,74.99 415.67,74.97 414.14,75.73 C418.28,73.54 422.81,71.63 428.04,69.80 L 437.50 66.50 L 684.42 66.25 C892.18,66.04 931.68,66.21 933.44,67.37 C935.84,68.94 940.48,70.09 944.93,70.22 C946.62,70.27 948.00,70.71 948.00,71.21 C948.00,71.71 948.43,71.85 948.96,71.52 C949.72,71.05 953.78,72.77 958.48,75.32 C957.92,75.12 957.41,75.00 957.05,75.00 C956.57,75.00 956.43,75.93 956.73,77.06 C957.05,78.29 957.82,78.90 958.64,78.58 C960.23,77.97 965.00,79.91 965.00,81.16 C965.00,81.62 965.51,82.00 966.14,82.00 C968.07,82.00 979.87,92.95 979.91,94.78 C980.03,100.99 983.00,106.37 983.00,100.38 C983.00,98.13 983.22,97.94 984.55,99.04 C985.40,99.74 985.82,101.02 985.49,101.88 C985.16,102.74 985.21,103.12 985.61,102.73 C986.80,101.53 989.00,104.10 989.00,106.68 C989.00,108.02 989.42,108.86 989.93,108.54 C990.44,108.23 991.16,108.45 991.53,109.05 C991.90,109.65 992.45,109.89 992.75,109.59 C992.90,109.44 992.72,108.81 992.30,107.93 C995.36,113.39 998.00,119.21 998.00,120.92 C998.00,122.01 998.51,124.16 999.12,125.70 C999.74,127.24 1000.61,129.40 1001.05,130.50 C1003.15,135.78 1003.68,142.22 1004.48,172.00 C1005.27,201.17 1006.91,230.63 1007.90,233.26 C1008.37,234.49 1009.28,239.55 1009.94,244.50 C1012.62,264.93 1020.58,292.14 1028.08,306.50 C1028.18,306.70 1028.29,306.90 1028.39,307.10 C1028.28,307.03 1028.13,307.00 1027.95,307.00 C1027.23,307.00 1027.06,307.67 1027.51,308.75 C1027.90,309.71 1028.34,312.20 1028.48,314.29 C1028.77,318.55 1029.99,320.64 1030.02,316.92 C1030.03,314.62 1030.14,314.67 1032.11,317.75 C1033.26,319.54 1034.71,320.99 1035.35,320.98 C1036.08,320.98 1036.01,320.66 1035.16,320.12 C1034.43,319.66 1033.86,318.99 1033.90,318.64 C1034.05,317.36 1030.60,311.00 1029.76,311.00 C1029.28,311.00 1029.16,310.55 1029.50,310.00 C1029.61,309.82 1029.66,309.65 1029.66,309.51 C1037.74,324.76 1042.09,330.90 1050.70,339.65 C1055.76,344.79 1060.52,349.00 1061.27,349.00 C1062.88,349.00 1073.92,354.82 1075.78,356.66 C1076.48,357.35 1077.72,357.66 1078.53,357.35 C1079.34,357.04 1080.00,357.27 1080.00,357.86 C1080.00,358.45 1080.68,358.68 1081.50,358.36 C1082.32,358.05 1083.00,358.31 1083.00,358.95 C1083.00,359.59 1083.47,359.83 1084.04,359.47 C1084.62,359.12 1085.72,359.36 1086.50,360.00 C1087.80,361.08 1090.96,361.52 1099.76,361.87 L 1103.03 362.00 L 1102.96 385.00 L 1102.89 408.00 L 1098.11 408.00 C1087.75,408.00 1067.45,415.54 1059.26,422.43 C1057.58,423.84 1055.78,425.00 1055.26,425.00 C1054.03,425.00 1041.00,440.43 1041.00,441.89 C1041.00,442.50 1040.55,443.00 1040.00,443.00 C1039.45,443.00 1039.00,443.65 1039.00,444.45 C1039.00,445.25 1038.44,446.26 1037.75,446.70 C1035.12,448.38 1030.64,457.66 1025.66,471.49 C1025.64,471.31 1025.56,471.09 1025.42,470.86 C1024.96,470.13 1024.28,470.53 1023.49,472.02 C1022.59,473.70 1022.12,473.94 1021.71,472.90 C1021.41,472.13 1021.12,473.30 1021.07,475.50 C1021.01,477.70 1020.69,480.62 1020.34,482.00 C1019.97,483.46 1020.08,484.15 1020.60,483.67 C1021.10,483.21 1021.54,482.53 1021.58,482.17 C1021.63,481.80 1022.23,480.15 1022.91,478.50 C1023.59,476.85 1024.21,474.71 1024.29,473.75 C1024.36,472.79 1024.81,472.00 1025.27,472.00 C1025.36,472.00 1025.44,471.98 1025.50,471.95 C1024.16,475.66 1022.80,479.70 1021.42,484.00 C1018.86,491.98 1016.36,499.31 1015.85,500.29 C1015.35,501.27 1014.47,505.74 1013.91,510.22 C1013.35,514.70 1012.73,518.63 1012.53,518.96 C1012.04,519.75 1010.99,527.21 1009.82,537.14 C1009.78,536.42 1009.58,536.00 1009.23,536.00 C1007.56,536.00 1006.97,538.79 1006.32,549.81 C1005.72,560.04 1006.76,562.55 1007.70,556.59 C1006.26,570.82 1005.05,585.01 1004.93,591.00 C1004.76,599.25 1003.24,623.34 1002.52,629.23 C1002.17,632.08 1001.57,635.03 1000.75,638.04 C1001.62,634.39 1001.45,634.02 1000.21,634.23 C999.25,634.39 998.37,633.52 997.97,632.00 C997.49,630.19 997.19,631.16 996.90,635.50 C996.36,643.58 997.01,647.21 998.25,645.58 C996.75,649.46 994.91,653.35 992.79,657.14 C992.84,656.77 992.81,656.48 992.65,656.32 C992.43,656.10 990.82,658.16 989.07,660.89 C987.32,663.61 985.16,666.44 984.28,667.17 C982.83,668.36 982.73,668.16 983.31,665.25 C983.86,662.46 983.67,662.00 981.97,662.00 C980.21,662.00 980.03,662.54 980.40,666.75 C980.81,671.33 980.65,671.69 975.70,676.75 C972.88,679.64 970.85,682.00 971.19,682.00 C971.53,682.00 974.78,679.03 978.41,675.41 C982.03,671.78 985.00,668.45 985.00,668.01 C985.00,667.57 985.67,666.95 986.50,666.64 C986.58,666.61 986.67,666.57 986.75,666.52 C982.35,672.32 973.65,681.01 969.18,684.00 C962.48,688.48 955.39,692.32 949.03,695.00 C949.23,694.87 949.39,694.75 949.51,694.63 C950.43,693.71 948.62,693.38 941.45,693.16 C932.41,692.89 928.03,694.22 933.45,695.58 C936.32,696.30 935.92,698.00 932.88,698.00 C931.78,698.00 931.16,698.45 931.50,699.00 C931.52,699.03 931.54,699.06 931.56,699.08 C914.37,699.83 860.39,699.94 686.50,699.87 C551.75,699.82 439.51,699.39 437.08,698.91 C434.21,698.35 431.17,697.52 428.09,696.49 C431.76,697.65 435.83,698.59 436.43,698.22 C436.95,697.91 436.50,697.34 435.43,696.95 C433.91,696.39 434.33,696.08 437.46,695.47 C441.02,694.78 441.19,694.62 439.15,693.86 C435.95,692.68 420.67,693.21 422.82,694.43 C423.17,694.63 423.61,694.84 424.12,695.06 C416.88,692.25 409.77,688.47 404.58,684.51 C397.62,679.20 385.00,666.01 385.00,664.04 C385.00,663.47 384.55,663.00 384.00,663.00 C383.45,663.00 383.00,662.33 383.00,661.50 C383.00,660.67 382.60,660.00 382.11,660.00 C381.62,660.00 380.93,658.88 380.59,657.50 C380.24,656.12 379.49,655.00 378.92,655.00 C378.35,655.00 378.16,654.55 378.50,654.00 C378.84,653.45 378.57,653.00 377.89,653.00 C377.22,653.00 376.93,652.74 377.25,652.42 C377.57,652.10 376.78,649.73 375.49,647.16 C374.73,645.65 374.01,643.75 373.35,641.52 C373.86,643.10 374.31,644.03 374.55,643.78 C374.78,643.55 374.56,641.96 374.07,640.25 C373.58,638.54 373.43,634.40 373.73,631.07 C374.19,626.01 374.02,625.00 372.72,625.00 C371.87,625.00 370.91,624.44 370.59,623.75 C370.27,623.06 370.27,625.13 370.59,628.35 C370.61,628.55 370.63,628.75 370.65,628.95 C369.57,621.95 368.82,613.77 368.52,605.09 C368.21,596.06 367.75,587.73 367.51,586.59 C367.13,584.84 366.51,576.64 365.54,560.50 C365.45,558.85 365.01,555.12 364.58,552.21 C364.15,549.31 363.64,544.81 363.44,542.21 C363.25,539.62 362.17,532.55 361.04,526.50 C359.92,520.45 358.81,514.05 358.58,512.28 C358.35,510.51 357.91,508.66 357.60,508.16 C357.29,507.66 356.77,505.07 356.45,502.40 C356.13,499.73 355.48,497.08 355.00,496.50 C354.52,495.92 353.91,494.11 353.65,492.48 C353.38,490.84 353.12,489.50 353.06,489.50 C352.97,489.50 346.34,470.68 345.67,468.50 C344.89,465.98 337.38,451.36 336.26,450.18 C335.57,449.45 335.00,448.21 335.00,447.43 C335.00,446.64 334.55,446.00 334.00,446.00 C333.45,446.00 333.00,445.52 333.00,444.93 C333.00,444.34 332.44,443.25 331.75,442.51 C331.06,441.78 329.38,439.70 328.00,437.90 C324.82,433.73 321.08,429.85 316.96,426.35 C317.43,426.69 317.71,426.89 317.75,426.91 C317.89,426.96 318.00,426.16 318.00,425.12 C318.00,423.90 317.05,423.04 315.25,422.63 C311.71,421.84 305.70,417.01 308.25,417.00 C309.21,417.00 310.00,416.53 310.00,415.96 C310.00,415.26 309.36,415.27 308.00,416.00 C306.59,416.75 305.33,416.76 303.75,416.01 C301.74,415.07 301.70,415.09 303.41,416.23 C304.27,416.80 306.84,418.70 309.59,420.78 C299.03,413.68 286.91,409.01 275.50,408.08 L 268.50 407.50 L 274.00 407.65 C277.02,407.73 280.85,408.26 282.50,408.82 C286.46,410.15 291.06,410.32 289.07,409.06 ZM 576.12 298.25 C576.23,296.60 576.26,296.60 576.69,298.26 C576.94,299.23 577.53,299.79 578.00,299.50 C578.36,299.28 578.42,298.23 578.20,296.94 C579.05,300.07 580.34,304.48 582.01,310.00 C582.52,311.69 583.16,313.83 583.83,316.15 C583.51,315.25 583.23,314.64 583.05,314.53 C582.63,314.27 582.25,318.44 582.21,323.78 C582.15,329.36 582.45,332.66 582.90,331.53 C583.33,330.45 583.56,328.54 583.43,327.28 C583.06,323.92 584.73,324.50 585.50,328.00 C585.86,329.65 586.57,331.00 587.08,331.00 C587.49,331.00 587.76,330.81 587.89,330.51 C587.94,330.67 587.98,330.84 588.02,331.00 C589.25,335.50 590.46,339.91 591.64,344.17 C591.35,343.45 591.10,343.00 590.94,343.00 C590.59,343.00 590.35,345.92 590.40,349.50 C590.46,353.07 590.84,356.00 591.25,356.00 C591.66,356.00 592.01,355.44 592.02,354.75 C592.03,353.90 592.33,353.97 592.96,354.97 C593.47,355.78 594.12,356.21 594.40,355.94 C594.57,355.76 594.47,354.78 594.22,353.44 C596.37,361.13 598.36,368.12 600.08,374.00 C598.70,370.29 598.06,371.14 598.19,376.57 C598.33,382.64 599.02,385.43 599.80,383.09 C600.16,382.01 600.39,382.01 601.07,383.11 C602.37,385.22 602.74,384.12 602.09,380.98 C603.57,386.30 605.18,392.59 606.04,396.50 C607.14,401.45 608.45,406.40 608.97,407.50 C610.56,410.90 616.00,430.23 616.00,432.47 C616.00,433.64 616.42,435.03 616.92,435.55 C617.43,436.07 618.61,439.65 619.54,443.50 C620.48,447.35 621.62,451.26 622.08,452.18 C622.34,452.69 622.93,454.45 623.65,456.78 C623.35,456.04 623.09,455.56 622.90,455.44 C622.40,455.13 622.00,457.86 622.00,461.55 C622.00,467.04 622.26,468.11 623.49,467.64 C624.49,467.26 625.18,467.88 625.60,469.54 C626.10,471.52 627.54,472.72 627.91,471.75 C628.21,472.80 628.43,473.51 628.51,473.75 C628.83,474.69 633.84,475.00 648.95,475.00 C630.73,475.00 627.71,475.37 629.67,477.33 C630.03,477.70 638.53,478.00 648.54,478.00 C663.51,478.00 666.98,477.73 668.00,476.50 C669.10,475.18 666.90,475.00 649.12,475.00 L 668.96 475.00 L 669.62 472.25 C669.98,470.74 670.54,469.05 670.86,468.50 C671.18,467.95 671.58,466.61 671.75,465.52 C671.92,464.43 673.17,460.02 674.53,455.72 C675.89,451.42 677.00,447.50 677.00,447.01 C677.00,446.53 677.52,444.86 678.15,443.32 C678.79,441.77 679.47,439.65 679.67,438.60 C679.87,437.56 680.90,433.73 681.95,430.10 C683.01,426.47 685.75,416.98 688.05,409.00 C690.34,401.02 693.48,390.23 695.03,385.00 C696.07,381.46 697.56,376.29 698.88,371.62 C697.81,375.54 697.00,378.82 697.02,379.55 C697.02,380.07 697.45,379.84 697.96,379.03 C698.74,377.79 699.02,377.87 699.70,379.53 C700.23,380.85 700.60,379.08 700.79,374.20 C701.01,368.94 701.50,366.75 702.54,366.34 C703.41,366.01 704.00,364.45 704.00,362.48 C704.00,360.66 704.48,359.01 705.06,358.81 C705.43,358.69 705.58,358.21 705.56,357.63 C705.84,358.44 706.14,359.44 706.48,360.65 C707.07,362.80 709.24,370.33 711.70,378.79 C711.48,378.30 711.26,377.92 711.05,377.69 C710.63,377.25 710.29,379.36 710.29,382.40 C710.29,387.54 711.34,389.10 713.14,386.63 C713.41,386.24 713.33,384.95 713.06,383.45 L 713.51 385.00 C715.83,392.96 717.85,399.95 719.58,406.01 C719.27,405.38 718.99,405.00 718.79,405.00 C718.36,405.00 718.07,408.94 718.15,413.75 C718.23,418.56 718.49,421.15 718.73,419.50 C718.97,417.85 719.77,415.83 720.51,415.00 C721.19,414.24 721.46,413.50 721.33,412.19 C721.68,413.44 722.02,414.65 722.35,415.81 C722.26,415.69 722.15,415.59 722.02,415.51 C721.46,415.16 721.00,415.58 721.00,416.44 C721.00,418.20 721.60,418.46 722.46,417.07 C722.53,416.95 722.58,416.82 722.60,416.69 C725.44,426.86 727.03,433.04 727.46,435.50 C727.85,437.70 728.78,440.85 729.52,442.50 C730.30,444.22 732.34,450.39 735.45,460.36 C734.98,459.16 734.62,458.12 734.58,457.83 C734.54,457.47 734.16,456.83 733.75,456.41 C732.56,455.23 734.20,465.29 735.42,466.68 C736.89,468.37 738.53,468.35 737.13,466.66 C736.52,465.92 736.25,465.08 736.54,464.80 C736.63,464.71 736.66,464.50 736.64,464.21 C737.54,467.12 738.51,470.31 739.56,473.75 C739.84,474.70 744.80,475.00 759.91,475.00 C742.47,475.00 740.10,475.20 741.21,476.46 C743.14,478.65 778.19,478.68 780.00,476.50 C781.10,475.17 778.84,475.00 760.58,475.00 L 779.88 475.00 L 782.37 466.75 C783.75,462.21 786.04,454.23 787.47,449.00 C788.91,443.77 790.31,438.83 790.60,438.00 C790.89,437.17 791.16,436.27 791.19,436.00 C791.22,435.73 791.87,433.48 792.64,431.00 C793.41,428.52 794.95,423.12 796.05,419.00 C797.16,414.88 798.34,410.83 798.68,410.00 C799.02,409.17 799.43,407.83 799.60,407.00 C799.76,406.17 800.56,403.25 801.37,400.50 C802.19,397.75 804.68,388.98 806.92,381.00 C814.99,352.17 816.08,348.44 817.53,344.50 C818.34,342.30 819.20,339.38 819.43,338.00 C819.66,336.62 819.92,335.50 820.00,335.50 C820.08,335.50 820.35,334.38 820.61,333.00 C820.86,331.63 822.03,327.35 823.22,323.50 C824.40,319.65 825.46,316.16 825.56,315.75 C825.67,315.34 825.84,314.89 825.95,314.75 C826.22,314.42 826.76,312.19 827.48,308.50 C827.80,306.85 828.34,304.83 828.68,304.00 C829.02,303.17 829.46,301.60 829.66,300.50 C829.86,299.40 830.31,297.83 830.67,297.00 C831.02,296.17 831.48,294.48 831.69,293.23 L 832.07 290.96 L 810.79 291.23 L 789.50 291.50 L 787.54 299.50 C786.46,303.90 785.27,307.73 784.89,308.00 C784.51,308.27 783.88,310.75 783.50,313.50 C782.55,320.27 777.23,342.08 775.99,344.24 C775.45,345.19 775.00,347.04 775.00,348.34 C775.00,351.33 770.13,371.11 769.06,372.48 C768.62,373.04 767.69,376.65 766.99,380.50 C766.26,384.56 764.48,392.69 762.73,400.24 C762.59,400.09 762.38,400.00 762.10,400.00 C761.60,400.00 760.66,402.25 760.00,405.00 C758.54,411.08 757.39,412.04 756.49,407.94 C756.11,406.24 755.59,405.08 755.31,405.35 C755.04,405.63 755.58,408.47 756.53,411.68 C758.02,416.78 758.31,417.24 759.07,415.29 C758.77,416.38 758.56,417.00 758.50,417.00 C758.01,417.00 754.69,406.86 754.41,404.50 C754.28,403.40 754.07,402.39 753.96,402.25 C753.84,402.11 753.64,401.55 753.50,401.00 C753.36,400.45 753.13,399.66 752.97,399.25 C752.82,398.84 752.59,398.05 752.46,397.50 C752.34,396.95 752.14,396.27 752.04,396.00 C751.93,395.73 751.64,394.60 751.39,393.50 C750.83,391.08 750.49,389.97 749.70,388.00 C749.05,386.36 743.95,366.86 743.64,364.79 C743.53,364.08 743.16,363.05 742.81,362.49 C742.47,361.94 741.82,359.69 741.39,357.49 C740.44,352.74 740.48,352.89 739.75,351.00 C739.44,350.17 738.74,347.70 738.21,345.50 C737.67,343.30 735.17,334.08 732.65,325.00 C730.12,315.92 727.89,307.60 727.68,306.50 C727.47,305.40 727.02,303.83 726.68,303.00 C726.34,302.17 725.84,300.38 725.58,299.00 C725.31,297.62 724.70,295.15 724.23,293.50 L 723.36 290.50 L 704.37 290.23 L 685.38 289.96 L 683.60 297.47 C682.63,301.60 681.46,305.22 681.00,305.50 C680.55,305.78 679.89,307.92 679.55,310.26 C679.20,312.59 677.75,319.00 676.33,324.50 C669.49,350.90 664.86,367.66 663.98,369.24 C663.44,370.19 663.00,371.84 663.00,372.90 C663.00,375.71 657.97,394.34 656.91,395.45 C656.41,395.97 656.00,397.77 655.99,399.45 C655.99,401.13 655.32,403.79 654.49,405.36 C653.67,406.94 653.00,409.56 653.00,411.19 C653.00,413.42 652.59,414.07 651.33,413.82 C650.03,413.57 648.25,407.89 643.37,388.50 C639.92,374.75 636.80,361.48 636.44,359.00 C636.08,356.52 635.16,352.97 634.38,351.10 C633.61,349.22 633.20,347.47 633.48,347.19 C633.76,346.91 633.60,346.19 633.12,345.59 C632.31,344.57 630.33,336.93 629.72,332.50 C629.57,331.40 629.07,329.91 628.62,329.18 C628.17,328.46 628.03,327.64 628.31,327.36 C628.59,327.08 628.38,325.42 627.84,323.67 C627.31,321.93 626.75,320.05 626.60,319.50 C626.46,318.95 625.83,316.70 625.22,314.50 C624.19,310.84 623.27,306.87 622.56,303.00 C622.40,302.17 622.01,300.83 621.68,300.00 C621.35,299.17 620.70,296.92 620.23,295.00 L 619.37 291.50 L 598.19 291.23 C590.08,291.13 582.99,291.20 579.44,291.40 C582.97,291.16 589.98,291.00 598.00,291.00 C622.64,291.00 626.94,289.30 603.75,288.72 C595.36,288.51 587.26,288.10 585.75,287.81 C584.08,287.48 582.99,287.71 582.98,288.39 C582.97,289.13 582.72,289.11 582.21,288.31 C580.36,285.40 574.59,289.07 575.29,292.71 C575.53,294.00 575.34,295.29 574.87,295.58 C573.66,296.33 573.78,300.00 575.00,300.00 C575.55,300.00 576.05,299.21 576.12,298.25 ZM 451.98 447.75 C451.99,446.79 452.34,446.00 452.75,446.00 C453.16,446.00 453.57,444.83 453.65,443.40 C453.73,441.97 454.32,440.28 454.95,439.65 C455.76,438.84 466.39,438.41 490.89,438.18 L 525.68 437.86 L 527.42 442.43 C528.38,444.94 529.60,447.00 530.14,447.00 C530.68,447.00 530.76,446.44 530.32,445.75 C529.89,445.06 529.51,444.27 529.49,444.00 C529.47,443.75 528.96,441.83 528.32,439.54 L 531.57 449.18 C531.47,449.07 531.29,449.00 531.06,449.00 C530.98,449.00 530.91,449.00 530.84,449.00 C530.57,448.99 530.37,448.99 530.26,449.08 C529.90,449.38 530.32,450.61 532.02,455.59 L 532.02 455.60 C532.17,456.02 532.32,456.48 532.49,456.96 C533.93,461.19 534.72,465.26 534.38,466.63 C533.94,468.39 534.20,469.00 535.39,469.00 C536.28,469.00 537.00,469.45 537.00,470.00 C537.00,470.55 537.50,471.00 538.11,471.00 C538.67,471.00 538.90,470.39 538.67,469.62 C539.55,471.97 540.15,473.49 540.34,473.75 C540.88,474.50 544.55,474.85 553.98,474.96 C546.00,475.19 541.18,475.57 541.59,475.98 C542.71,477.08 547.22,477.41 566.90,477.82 C578.83,478.07 582.49,477.84 583.13,476.82 C583.59,476.09 583.98,475.27 583.99,475.00 C583.99,474.88 582.18,474.80 579.18,474.75 C581.63,474.66 583.12,474.54 583.25,474.42 C583.57,474.10 583.19,472.30 582.40,470.42 C581.62,468.54 581.26,467.00 581.61,467.00 C581.96,467.00 581.78,466.44 581.21,465.75 C580.64,465.06 580.07,464.05 579.96,463.50 C579.59,461.78 578.83,459.61 577.50,456.50 C576.42,453.97 574.98,449.92 574.47,448.00 C574.39,447.73 573.87,446.38 573.30,445.00 C571.67,441.01 565.82,424.90 565.55,423.65 C565.42,423.02 564.74,421.15 564.05,419.50 C561.35,413.02 548.85,378.36 548.38,376.03 C548.11,374.67 547.40,372.99 546.82,372.28 C546.23,371.58 546.09,371.00 546.50,371.00 C546.91,371.00 546.68,370.33 546.00,369.50 C545.32,368.67 545.05,368.00 545.40,368.00 C545.76,368.00 545.31,366.88 544.41,365.50 C543.51,364.12 543.07,363.00 543.44,363.00 C543.81,363.00 543.76,362.44 543.32,361.75 C542.89,361.06 542.49,360.27 542.44,360.00 C542.40,359.73 541.87,358.38 541.28,357.00 C539.38,352.58 532.87,335.27 532.58,333.86 C532.43,333.11 531.94,331.60 531.49,330.50 C529.63,325.90 526.83,318.46 526.78,318.00 C526.75,317.73 526.36,316.60 525.91,315.50 C525.17,313.69 518.50,295.29 517.48,292.25 C517.16,291.29 510.99,291.00 491.14,291.00 C467.38,291.00 465.16,291.15 464.51,292.75 C464.12,293.71 459.85,305.52 455.00,319.00 C453.54,323.08 452.18,326.86 450.91,330.37 C451.24,328.88 451.32,327.70 450.95,327.47 C450.43,327.15 450.00,327.41 450.00,328.05 C450.00,328.69 449.33,328.96 448.51,328.64 C447.34,328.19 447.05,328.87 447.16,331.78 C447.24,333.83 446.98,336.51 446.58,337.75 C446.10,339.26 446.27,340.00 447.10,340.00 C447.23,340.00 447.35,339.99 447.45,339.97 C438.06,365.91 435.36,372.73 434.29,373.82 C433.07,375.07 432.73,376.12 431.67,382.00 C431.42,383.38 424.22,403.68 415.66,427.11 C413.38,433.36 411.19,439.39 409.20,444.90 C409.77,443.10 410.28,441.29 410.38,440.69 C410.47,440.04 410.91,438.94 411.34,438.25 C411.77,437.56 411.68,437.00 411.14,437.00 C410.61,437.00 409.94,437.56 409.66,438.25 C409.28,439.19 408.89,439.13 408.09,438.00 C407.28,436.85 407.02,437.55 407.00,441.00 C406.99,443.48 406.68,446.58 406.33,447.91 C405.43,451.26 407.17,449.96 408.52,446.78 C405.09,456.25 402.32,464.01 400.77,468.44 L 400.76 468.43 C400.45,468.12 400.81,466.67 401.56,465.22 C402.63,463.17 402.66,462.40 401.72,461.80 C399.59,460.45 399.25,460.91 399.36,465.00 C399.42,467.20 399.89,469.00 400.40,469.00 C400.46,469.00 400.52,469.00 400.58,468.99 C399.92,470.87 399.52,472.05 399.45,472.36 L 398.78 475.00 L 432.56 475.00 C429.52,475.05 425.51,475.06 420.18,475.08 C400.60,475.15 398.79,475.30 401.50,476.59 C403.85,477.72 408.06,477.94 421.00,477.60 C430.08,477.37 438.40,476.95 439.50,476.67 C440.60,476.38 441.79,476.12 442.14,476.08 C442.49,476.03 443.07,474.86 443.42,473.46 C443.77,472.06 444.42,471.14 444.86,471.41 C445.30,471.68 445.58,470.92 445.48,469.70 C445.39,468.49 446.14,465.06 447.16,462.09 C448.17,459.11 448.84,456.51 448.65,456.31 C448.31,455.98 443.94,467.68 442.50,472.75 C442.36,473.27 442.24,473.67 441.88,473.97 L 447.79 456.25 C450.77,447.32 453.54,439.39 454.50,436.99 L 452.58 442.75 C451.16,447.02 450.01,450.96 450.02,451.50 C450.04,453.25 451.97,449.58 451.98,447.75 ZM 886.72 476.91 C889.53,476.14 891.17,475.05 891.63,473.63 C892.48,470.99 892.23,405.19 891.37,403.79 C891.03,403.23 891.29,402.44 891.96,402.03 C892.86,401.47 892.79,401.13 891.68,400.71 C891.37,400.59 891.05,400.52 890.74,400.49 L 927.75 400.24 L 966.00 399.98 L 966.00 368.00 L 889.00 368.00 L 889.00 367.00 L 929.50 366.55 L 892.00 365.96 L 892.02 347.73 C892.02,337.70 892.46,328.83 892.98,328.00 C893.79,326.72 899.41,326.46 931.59,326.21 C962.72,325.98 969.63,325.68 971.35,324.46 C973.20,323.17 968.59,323.00 931.22,323.00 L 892.51 323.00 L 931.25 322.76 L 973.50 322.50 L 973.80 310.50 C973.97,303.90 973.83,296.58 973.49,294.24 L 972.88 289.98 L 910.69 290.24 C876.48,290.38 848.61,290.84 848.75,291.25 C848.89,291.66 849.00,333.17 849.00,383.50 C849.00,329.78 848.63,292.00 848.10,292.00 C847.60,292.00 846.79,293.24 846.30,294.75 C845.65,296.72 845.47,444.65 846.08,474.30 C846.13,476.62 846.98,476.91 856.55,477.81 C867.00,478.79 881.44,478.36 886.72,476.91 ZM 497.18 353.75 C497.53,354.99 498.42,355.99 499.16,355.98 C499.34,355.98 499.49,355.97 499.60,355.94 C502.14,363.98 504.01,370.35 504.01,371.05 C504.00,371.90 504.39,373.03 504.88,373.55 C505.88,374.64 514.00,398.85 514.00,400.75 C514.00,402.70 468.42,402.55 467.68,400.60 C467.38,399.83 467.44,398.89 467.82,398.51 C468.19,398.14 468.56,397.42 468.62,396.92 C468.69,396.41 468.86,395.77 469.00,395.50 C469.14,395.23 469.36,394.55 469.50,394.00 C469.64,393.45 469.86,392.77 470.00,392.50 C470.14,392.23 470.32,391.66 470.41,391.25 C470.81,389.44 477.33,370.40 477.86,369.50 C478.18,368.95 478.53,367.90 478.64,367.17 C478.76,366.44 479.17,365.09 479.57,364.17 C479.97,363.25 480.42,361.95 480.56,361.28 C481.50,356.80 489.48,334.25 490.51,333.14 C491.25,332.36 492.14,333.72 494.37,340.08 C494.23,340.03 494.07,340.00 493.89,340.00 C493.20,340.00 493.09,340.65 493.59,341.75 C494.04,342.71 494.49,346.42 494.60,350.00 C494.85,358.32 495.11,359.33 495.91,355.00 C496.47,351.94 496.63,351.79 497.18,353.75 ZM 517.00 290.00 C517.00,289.43 514.12,289.00 510.37,289.00 C506.72,289.00 501.96,288.47 499.79,287.82 C496.52,286.84 495.69,286.88 494.94,288.07 C494.31,289.07 494.03,289.12 494.02,288.25 C494.01,287.56 493.52,287.00 492.94,287.00 C492.36,287.00 492.16,287.45 492.50,288.00 C492.87,288.60 491.51,289.00 489.06,289.00 C486.52,289.00 484.97,288.53 484.92,287.75 C484.86,286.75 484.74,286.75 484.34,287.75 C483.98,288.63 481.00,289.00 474.36,289.00 C468.30,289.00 465.10,289.36 465.50,290.00 C465.89,290.62 475.68,291.00 491.56,291.00 C507.85,291.00 517.00,290.64 517.00,290.00 ZM 832.00 290.00 C832.00,289.45 830.07,289.00 827.70,289.00 C825.34,289.00 822.91,288.51 822.32,287.92 C821.62,287.22 818.36,287.05 813.12,287.42 C808.65,287.74 801.32,288.26 796.82,288.58 C791.39,288.97 789.12,289.47 790.07,290.07 C792.08,291.34 832.00,291.27 832.00,290.00 ZM 431.00 70.94 C433.37,71.25 439.29,71.22 441.70,70.89 C443.21,70.68 443.60,70.23 442.96,69.45 C442.44,68.83 442.31,68.02 442.68,67.66 C444.06,66.27 436.92,67.09 430.61,69.04 C424.24,71.00 421.12,72.99 426.75,71.48 C428.26,71.08 430.17,70.84 431.00,70.94 ZM 786.78 463.79 C787.39,465.55 788.16,467.00 788.47,467.00 C788.79,467.00 788.93,462.45 788.78,456.90 L 788.50 446.79 L 786.37 453.65 C785.20,457.42 783.96,462.08 783.63,464.00 L 783.02 467.50 L 784.34 464.04 L 785.65 460.57 ZM 796.80 428.25 L 796.77 418.50 L 795.04 423.50 C793.47,428.06 791.44,437.18 792.65,434.25 C793.54,432.10 795.00,432.88 795.00,435.50 C795.00,436.88 795.41,438.00 795.92,438.00 C796.42,438.00 796.82,433.61 796.80,428.25 ZM 1092.61 407.91 C1093.25,407.38 1095.63,407.24 1097.89,407.60 C1100.89,408.08 1102.00,407.91 1102.00,406.98 C1102.00,406.02 1100.38,405.86 1095.25,406.35 C1091.54,406.70 1085.80,407.05 1082.50,407.13 C1079.20,407.21 1077.51,407.47 1078.75,407.71 C1079.99,407.94 1081.00,408.62 1081.00,409.20 C1081.00,410.47 1090.84,409.38 1092.61,407.91 ZM 485.91 356.50 C485.85,351.27 485.63,347.00 485.44,347.00 C485.06,347.00 480.99,359.76 481.02,360.86 C481.02,361.21 481.42,360.88 481.90,360.12 C483.22,358.04 485.00,359.73 485.00,363.06 C485.00,364.68 485.23,366.00 485.52,366.00 C485.80,366.00 485.98,361.73 485.91,356.50 ZM 749.12 381.48 C748.56,379.44 748.37,374.82 748.71,371.23 C749.18,366.19 749.04,364.86 748.09,365.44 C747.42,365.86 747.09,366.79 747.36,367.50 C748.28,369.88 746.63,370.10 745.26,367.78 C744.11,365.84 743.99,365.79 744.40,367.50 C746.41,375.83 749.39,385.94 749.73,385.60 C749.96,385.37 749.68,383.52 749.12,381.48 ZM 812.73 371.50 C812.60,366.83 812.42,363.01 812.32,363.00 C812.07,363.00 809.34,372.89 808.60,376.50 L 807.98 379.50 L 809.46 377.00 L 810.93 374.50 L 810.96 377.25 C810.98,378.76 811.44,380.00 811.98,380.00 C812.57,380.00 812.87,376.56 812.73,371.50 ZM 477.75 380.54 C477.66,375.34 477.50,371.18 477.39,371.29 C477.00,371.71 473.00,384.35 473.08,384.92 C473.13,385.24 473.78,384.15 474.54,382.50 L 475.91 379.50 L 475.95 384.08 C475.99,388.06 476.54,390.00 477.63,390.00 C477.79,390.00 477.85,385.74 477.75,380.54 ZM 1102.98 364.25 C1103.00,362.31 1102.48,362.00 1099.21,362.00 C1096.14,362.00 1095.40,362.38 1095.27,364.00 C1095.16,365.50 1095.74,366.00 1097.59,366.00 C1098.95,366.00 1100.34,366.71 1100.67,367.58 C1101.47,369.66 1102.96,367.50 1102.98,364.25 ZM 541.05 353.18 C540.49,351.23 540.50,350.00 541.07,350.00 C541.58,350.00 541.99,348.31 541.97,346.25 C541.94,342.75 541.84,342.63 540.48,344.43 C538.91,346.50 538.91,346.50 537.07,343.50 L 535.85 341.50 L 536.53 343.50 C540.25,354.39 541.27,357.06 541.59,356.74 C541.80,356.54 541.55,354.93 541.05,353.18 ZM 676.86 459.25 L 676.69 449.50 L 674.83 455.44 C673.80,458.71 673.16,461.86 673.40,462.44 C673.64,463.02 673.88,462.60 673.94,461.50 C674.10,458.10 675.97,461.98 675.98,465.75 C675.99,467.54 676.23,469.00 676.52,469.00 C676.80,469.00 676.96,464.61 676.86,459.25 ZM 644.88 383.75 C644.82,379.21 644.56,376.29 644.31,377.25 C643.80,379.20 642.00,379.66 642.00,377.83 C642.00,377.19 641.77,376.90 641.48,377.19 C640.97,377.69 644.08,392.00 644.69,392.00 C644.86,392.00 644.95,388.29 644.88,383.75 ZM 758.07 400.00 C759.23,400.00 759.31,392.31 758.16,391.60 C756.87,390.80 755.17,397.44 755.82,400.66 C756.21,402.58 756.52,402.93 756.77,401.75 C756.98,400.79 757.56,400.00 758.07,400.00 ZM 683.71 434.44 C684.50,435.85 684.75,434.53 684.78,428.89 L 684.83 421.50 L 683.54 425.52 C681.94,430.55 680.66,437.31 681.84,434.54 C682.64,432.66 682.71,432.65 683.71,434.44 ZM 558.55 401.14 C557.74,398.84 557.28,396.41 557.53,395.73 C557.78,395.05 557.58,393.15 557.08,391.50 C556.22,388.67 556.17,388.64 556.07,391.00 C555.99,393.06 555.78,393.23 554.89,392.00 C553.93,390.67 553.86,390.67 554.27,392.00 C555.77,396.92 559.34,405.99 559.65,405.68 C559.86,405.48 559.36,403.43 558.55,401.14 ZM 733.56 323.94 C732.62,320.58 732.07,317.27 732.33,316.58 C732.93,315.03 731.37,312.30 730.43,313.24 C730.05,313.61 730.80,317.74 732.09,322.41 C733.38,327.08 734.62,330.71 734.86,330.48 C735.09,330.24 734.51,327.30 733.56,323.94 ZM 526.10 312.35 C525.63,310.70 525.37,308.17 525.52,306.74 C525.73,304.85 525.43,304.28 524.40,304.68 C523.63,304.97 523.00,304.64 523.00,303.94 C523.00,303.24 522.71,302.95 522.37,303.30 C522.02,303.65 522.75,306.66 524.00,310.00 C526.34,316.24 527.63,317.70 526.10,312.35 ZM 692.08 405.54 C692.52,406.69 692.80,404.62 692.76,400.54 L 692.70 393.58 L 691.47 397.72 C690.80,400.00 689.96,403.14 689.61,404.68 C689.05,407.17 689.11,407.27 690.15,405.54 C691.32,403.60 691.34,403.60 692.08,405.54 ZM 802.98 402.75 C802.99,403.44 803.45,404.00 804.00,404.00 C804.55,404.00 805.00,402.88 805.00,401.50 C805.00,400.12 804.61,399.00 804.14,399.00 C803.66,399.00 803.45,397.76 803.66,396.25 C803.98,393.95 803.90,393.83 803.15,395.50 C801.67,398.82 800.70,404.76 801.92,403.00 C802.63,401.99 802.97,401.90 802.98,402.75 ZM 565.98 415.25 C566.00,412.95 564.04,411.98 563.95,414.25 C563.93,414.94 563.29,414.15 562.54,412.50 C560.64,408.35 560.68,409.71 562.63,415.42 C564.28,420.28 565.95,420.20 565.98,415.25 ZM 739.71 342.16 C739.05,341.36 737.94,339.54 737.26,338.10 C735.95,335.35 736.02,335.87 738.13,344.49 C739.33,349.35 739.38,349.40 740.14,346.55 C740.65,344.64 740.50,343.11 739.71,342.16 ZM 351.12 479.90 C350.50,478.14 350.00,475.69 350.00,474.46 C350.00,473.22 349.27,471.94 348.39,471.60 C347.34,471.19 346.95,471.42 347.26,472.24 C347.53,472.93 348.57,475.84 349.59,478.70 C350.60,481.56 351.61,483.72 351.83,483.50 C352.05,483.28 351.73,481.66 351.12,479.90 ZM 573.24 439.00 C572.84,434.97 572.49,434.04 571.92,435.50 C571.18,437.41 571.14,437.41 571.07,435.58 C571.03,434.53 570.72,433.94 570.38,434.28 C570.04,434.62 570.58,437.16 571.57,439.93 C572.57,442.69 573.47,444.85 573.58,444.73 C573.69,444.60 573.54,442.03 573.24,439.00 ZM 524.86 434.51 C522.11,434.79 507.00,435.00 489.50,435.00 L 473.47 435.00 C478.23,434.91 484.06,434.84 491.10,434.79 ZM 740.98 338.75 C740.97,336.93 740.78,336.79 740.00,338.00 C738.75,339.94 738.75,341.00 740.00,341.00 C740.55,341.00 740.99,339.99 740.98,338.75 ZM 671.11 327.71 C670.30,326.90 670.00,327.01 670.00,328.13 C670.00,330.12 671.34,331.47 671.84,329.98 C672.05,329.34 671.72,328.32 671.11,327.71 ZM 989.96 103.97 C988.55,101.93 987.01,100.09 986.35,99.70 C985.61,99.26 985.00,98.44 985.00,97.87 C985.00,96.91 978.14,89.66 974.14,86.03 C979.61,90.86 985.30,97.05 988.67,102.00 C989.09,102.62 989.52,103.28 989.96,103.97 ZM 535.31 460.16 C535.21,460.06 535.07,460.00 534.91,460.00 C534.34,460.00 534.14,459.58 534.46,459.07 C534.77,458.56 534.57,457.85 534.00,457.50 C533.43,457.15 533.21,456.47 533.50,456.00 C533.79,455.53 533.57,454.85 533.00,454.50 C532.43,454.15 532.21,453.47 532.50,453.00 C532.79,452.53 532.57,451.85 532.00,451.50 C531.43,451.15 531.23,450.44 531.54,449.93 C531.63,449.78 531.68,449.64 531.69,449.52 L 533.03 453.50 C533.81,455.81 534.58,458.05 535.31,460.16 ZM 972.75 84.83 C972.10,84.30 971.63,83.99 971.43,83.98 C970.92,83.97 969.44,82.85 968.15,81.48 C967.87,81.19 967.57,80.90 967.26,80.64 C967.68,80.93 968.10,81.21 968.50,81.50 C969.85,82.46 971.29,83.59 972.75,84.83 ZM 937.31 698.29 C937.80,698.46 939.00,698.32 940.48,698.01 C939.79,698.19 939.12,698.35 938.47,698.49 C937.65,698.66 936.31,698.82 934.09,698.95 L 934.12 698.94 C935.21,698.35 936.65,698.06 937.31,698.29 ZM 704.34 355.04 C704.26,355.01 704.19,355.00 704.11,355.00 C703.78,355.00 701.86,361.12 700.09,367.26 C700.27,366.65 700.43,366.06 700.58,365.50 C702.09,360.00 703.48,355.31 703.66,355.08 C703.87,354.83 704.09,354.81 704.34,355.04 ZM 587.41 328.74 C587.37,328.71 587.34,328.67 587.30,328.64 C586.92,328.26 586.50,327.23 586.38,326.35 C586.18,325.04 585.85,323.42 585.45,321.80 C586.13,324.19 586.81,326.58 587.41,328.74 ZM 536.44 463.41 C536.22,463.15 535.99,463.00 535.78,463.00 C535.24,463.00 535.05,462.33 535.36,461.50 C535.47,461.23 535.51,460.97 535.51,460.75 C535.83,461.67 536.14,462.55 536.44,463.41 ZM 760.21 410.10 C760.29,408.67 760.77,406.96 761.27,406.29 C761.29,406.26 761.32,406.22 761.34,406.19 C760.87,408.19 760.42,410.03 760.02,411.61 C760.11,411.06 760.18,410.54 760.21,410.10 ZM 627.31 469.64 L 627.30 469.64 C626.92,469.26 626.50,468.23 626.38,467.35 C626.23,466.38 626.03,465.30 625.78,464.19 C626.33,466.17 626.86,468.07 627.31,469.64 ZM 499.35 355.15 C498.81,354.68 498.34,353.53 498.28,352.50 C498.26,352.14 498.17,351.65 498.05,351.11 C498.50,352.48 498.93,353.84 499.35,355.15 ZM 447.67 339.34 C447.31,338.98 447.46,338.15 448.00,337.51 C448.25,337.20 448.51,336.79 448.77,336.31 C448.39,337.35 448.03,338.36 447.67,339.34 ZM 761.73 404.56 C761.70,404.39 761.65,404.24 761.57,404.11 C761.24,403.58 761.42,402.86 761.98,402.51 C762.08,402.45 762.17,402.38 762.25,402.31 C762.08,403.07 761.90,403.82 761.73,404.56 ZM 412.74 76.50 C410.18,77.97 406.35,80.55 402.72,83.23 C405.93,80.67 409.20,78.47 412.74,76.50 ZM 1029.45 309.12 C1029.34,309.04 1029.19,309.00 1029.00,309.00 C1028.39,309.00 1028.16,308.55 1028.50,308.00 C1028.59,307.86 1028.64,307.72 1028.65,307.59 C1028.92,308.11 1029.19,308.62 1029.45,309.12 ZM 987.97 664.83 C987.99,664.73 988.00,664.63 988.00,664.53 C988.00,663.69 988.45,663.00 989.00,663.00 C989.08,663.00 989.17,662.98 989.25,662.95 C988.83,663.58 988.41,664.21 987.97,664.83 ZM 964.97 79.13 C964.75,79.05 964.55,79.00 964.40,79.00 C963.63,79.00 963.00,78.62 963.00,78.16 C963.00,78.06 962.94,77.94 962.83,77.80 C963.55,78.24 964.27,78.68 964.97,79.13 ZM 989.97 661.83 C989.99,661.73 990.00,661.61 990.00,661.50 C990.00,660.67 990.40,660.00 990.89,660.00 C990.98,660.00 991.07,659.98 991.16,659.93 C990.77,660.57 990.38,661.20 989.97,661.83 ZM 496.74 347.08 C496.12,345.57 495.56,344.13 495.46,343.75 C495.34,343.34 495.14,342.66 495.01,342.25 C494.94,342.05 494.89,341.78 494.87,341.51 C495.42,343.09 496.03,344.94 496.74,347.08 ZM 1008.44 549.43 C1008.76,545.61 1009.20,541.64 1009.52,539.73 C1009.16,542.81 1008.80,546.08 1008.44,549.43 ZM 527.04 435.75 C526.73,435.10 526.42,434.69 526.09,434.50 L 526.62 434.50 ZM 890.22 400.50 C889.95,400.53 889.73,400.61 889.60,400.74 C889.56,400.77 889.53,401.00 889.49,401.40 L 889.50 400.50 ZM 889.00 471.54 L 889.00 475.00 L 888.98 475.00 ZM 577.01 291.74 C577.01,291.86 577.03,292.03 577.06,292.26 C577.02,292.03 577.00,291.85 577.00,291.76 C577.00,291.75 577.00,291.74 577.01,291.74 Z" fill="rgb(74,44,106)"/>
<path d="M 0.00 382.50 L 0.00 0.00 L 685.50 0.00 L 1371.00 0.00 L 1371.00 382.50 L 1371.00 765.00 L 685.50 765.00 L 0.00 765.00 L 0.00 382.50 ZM 938.47 698.49 C946.63,696.76 958.40,691.20 969.18,684.00 C973.92,680.83 983.42,671.24 987.50,665.50 C995.57,654.16 1001.11,640.77 1002.52,629.23 C1003.24,623.34 1004.76,599.25 1004.93,591.00 C1005.21,577.38 1011.13,521.21 1012.53,518.96 C1012.73,518.63 1013.35,514.70 1013.91,510.22 C1014.47,505.74 1015.35,501.27 1015.85,500.29 C1016.36,499.31 1018.86,491.98 1021.42,484.00 C1028.01,463.41 1034.39,448.85 1037.75,446.70 C1038.44,446.26 1039.00,445.25 1039.00,444.45 C1039.00,443.65 1039.45,443.00 1040.00,443.00 C1040.55,443.00 1041.00,442.50 1041.00,441.89 C1041.00,440.43 1054.03,425.00 1055.26,425.00 C1055.78,425.00 1057.58,423.84 1059.26,422.43 C1067.45,415.54 1087.75,408.00 1098.11,408.00 L 1102.89 408.00 L 1102.96 385.00 L 1103.03 362.00 L 1099.76 361.87 C1090.96,361.52 1087.80,361.08 1086.50,360.00 C1085.72,359.36 1084.62,359.12 1084.04,359.47 C1083.47,359.83 1083.00,359.59 1083.00,358.95 C1083.00,358.31 1082.32,358.05 1081.50,358.36 C1080.68,358.68 1080.00,358.45 1080.00,357.86 C1080.00,357.27 1079.34,357.04 1078.53,357.35 C1077.72,357.66 1076.48,357.35 1075.78,356.66 C1073.92,354.82 1062.88,349.00 1061.27,349.00 C1060.52,349.00 1055.76,344.79 1050.70,339.65 C1041.55,330.35 1037.21,324.00 1028.08,306.50 C1020.58,292.14 1012.62,264.93 1009.94,244.50 C1009.28,239.55 1008.37,234.49 1007.90,233.26 C1006.91,230.63 1005.27,201.17 1004.48,172.00 C1003.68,142.22 1003.15,135.78 1001.05,130.50 C1000.61,129.40 999.74,127.24 999.12,125.70 C998.51,124.16 998.00,122.01 998.00,120.92 C998.00,118.54 992.92,108.24 988.67,102.00 C984.10,95.29 975.27,86.31 968.50,81.50 C961.15,76.28 950.26,70.72 948.96,71.52 C948.43,71.85 948.00,71.71 948.00,71.21 C948.00,70.71 946.62,70.27 944.93,70.22 C940.48,70.09 935.84,68.94 933.44,67.37 C931.68,66.21 892.18,66.04 684.42,66.25 L 437.50 66.50 L 428.04 69.80 C414.05,74.68 405.08,80.20 395.13,90.03 C385.81,99.25 384.00,101.35 384.00,102.96 C384.00,103.53 383.59,104.00 383.08,104.00 C382.57,104.00 381.86,105.35 381.50,106.99 C381.14,108.64 380.26,110.33 379.56,110.74 C378.18,111.55 374.58,118.00 375.50,118.00 C375.80,118.00 375.40,119.01 374.61,120.25 C371.19,125.59 369.03,141.22 368.53,164.20 C368.26,176.47 367.79,190.10 367.47,194.50 C367.16,198.90 366.68,206.32 366.42,211.00 C366.16,215.68 365.74,221.52 365.48,224.00 C365.22,226.48 364.77,231.88 364.48,236.00 C364.19,240.12 363.47,244.99 362.88,246.82 C362.29,248.64 362.05,250.39 362.37,250.70 C362.68,251.01 362.53,252.02 362.03,252.94 C361.54,253.86 360.92,256.39 360.66,258.56 C360.40,260.73 359.93,263.17 359.62,264.00 C359.31,264.83 358.80,266.85 358.48,268.50 C358.16,270.15 357.76,271.95 357.59,272.50 C357.42,273.05 356.93,275.41 356.51,277.75 C356.09,280.09 355.28,282.00 354.71,282.00 C354.13,282.00 353.96,282.30 354.32,282.66 C354.69,283.02 354.60,283.81 354.12,284.41 C353.40,285.32 350.77,292.30 350.51,294.00 C350.46,294.27 349.93,295.40 349.31,296.50 C348.70,297.60 348.17,298.85 348.14,299.27 C348.04,300.65 340.53,315.49 339.75,315.83 C339.34,316.02 339.00,316.80 339.00,317.58 C339.00,318.36 338.63,319.00 338.17,319.00 C337.71,319.00 336.70,320.24 335.92,321.75 C335.14,323.26 334.05,325.02 333.50,325.66 C332.95,326.30 331.38,328.32 330.00,330.14 C326.95,334.17 319.32,341.78 315.58,344.50 C314.07,345.60 312.23,347.06 311.49,347.75 C310.75,348.44 309.69,349.00 309.14,349.00 C308.59,349.00 307.54,349.56 306.79,350.25 C302.14,354.56 279.69,362.00 271.35,362.00 L 267.96 362.00 L 268.23 384.75 L 268.50 407.50 L 275.50 408.08 C294.53,409.64 315.55,421.57 328.00,437.90 C329.38,439.70 331.06,441.78 331.75,442.51 C332.44,443.25 333.00,444.34 333.00,444.93 C333.00,445.52 333.45,446.00 334.00,446.00 C334.55,446.00 335.00,446.64 335.00,447.43 C335.00,448.21 335.57,449.45 336.26,450.18 C337.38,451.36 344.89,465.98 345.67,468.50 C346.34,470.68 352.97,489.50 353.06,489.50 C353.12,489.50 353.38,490.84 353.65,492.48 C353.91,494.11 354.52,495.92 355.00,496.50 C355.48,497.08 356.13,499.73 356.45,502.40 C356.77,505.07 357.29,507.66 357.60,508.16 C357.91,508.66 358.35,510.51 358.58,512.28 C358.81,514.05 359.92,520.45 361.04,526.50 C362.17,532.55 363.25,539.62 363.44,542.21 C363.64,544.81 364.15,549.31 364.58,552.21 C365.01,555.12 365.45,558.85 365.54,560.50 C366.51,576.64 367.13,584.84 367.51,586.59 C367.75,587.73 368.21,596.06 368.52,605.09 C369.16,623.65 371.85,639.93 375.49,647.16 C376.78,649.73 377.57,652.10 377.25,652.42 C376.93,652.74 377.22,653.00 377.89,653.00 C378.57,653.00 378.84,653.45 378.50,654.00 C378.16,654.55 378.35,655.00 378.92,655.00 C379.49,655.00 380.24,656.12 380.59,657.50 C380.93,658.88 381.62,660.00 382.11,660.00 C382.60,660.00 383.00,660.67 383.00,661.50 C383.00,662.33 383.45,663.00 384.00,663.00 C384.55,663.00 385.00,663.47 385.00,664.04 C385.00,666.01 397.62,679.20 404.58,684.51 C412.93,690.88 426.26,696.79 437.08,698.91 C439.51,699.39 551.75,699.82 686.50,699.87 C898.99,699.95 932.42,699.77 938.47,698.49 ZM 399.45 472.36 C399.81,470.91 407.11,450.55 415.66,427.11 C424.22,403.68 431.42,383.38 431.67,382.00 C432.73,376.12 433.07,375.07 434.29,373.82 C435.61,372.47 439.38,362.49 455.00,319.00 C459.85,305.52 464.12,293.71 464.51,292.75 C465.16,291.15 467.38,291.00 491.14,291.00 C510.99,291.00 517.16,291.29 517.48,292.25 C518.50,295.29 525.17,313.69 525.91,315.50 C526.36,316.60 526.75,317.73 526.78,318.00 C526.83,318.46 529.63,325.90 531.49,330.50 C531.94,331.60 532.43,333.11 532.58,333.86 C532.87,335.27 539.38,352.58 541.28,357.00 C541.87,358.38 542.40,359.73 542.44,360.00 C542.49,360.27 542.89,361.06 543.32,361.75 C543.76,362.44 543.81,363.00 543.44,363.00 C543.07,363.00 543.51,364.12 544.41,365.50 C545.31,366.88 545.76,368.00 545.40,368.00 C545.05,368.00 545.32,368.67 546.00,369.50 C546.68,370.33 546.91,371.00 546.50,371.00 C546.09,371.00 546.23,371.58 546.82,372.28 C547.40,372.99 548.11,374.67 548.38,376.03 C548.85,378.36 561.35,413.02 564.05,419.50 C564.74,421.15 565.42,423.02 565.55,423.65 C565.82,424.90 571.67,441.01 573.30,445.00 C573.87,446.38 574.39,447.73 574.47,448.00 C574.98,449.92 576.42,453.97 577.50,456.50 C578.83,459.61 579.59,461.78 579.96,463.50 C580.07,464.05 580.64,465.06 581.21,465.75 C581.78,466.44 581.96,467.00 581.61,467.00 C581.26,467.00 581.62,468.54 582.40,470.42 C583.19,472.30 583.57,474.10 583.25,474.42 C582.93,474.74 573.35,475.00 561.96,475.00 C546.54,475.00 541.01,474.68 540.34,473.75 C539.85,473.06 536.56,463.95 533.03,453.50 L 526.62 434.50 L 491.10 434.79 C464.60,435.00 455.38,435.38 454.81,436.29 C454.39,436.95 451.24,445.94 447.79,456.25 L 441.54 475.00 L 420.16 475.00 L 398.78 475.00 L 399.45 472.36 ZM 514.00 400.75 C514.00,398.85 505.88,374.64 504.88,373.55 C504.39,373.03 504.00,371.90 504.01,371.05 C504.01,370.20 501.27,361.02 497.90,350.64 C492.89,335.20 491.55,332.03 490.51,333.14 C489.48,334.25 481.50,356.80 480.56,361.28 C480.42,361.95 479.97,363.25 479.57,364.17 C479.17,365.09 478.76,366.44 478.64,367.17 C478.53,367.90 478.18,368.95 477.86,369.50 C477.33,370.40 470.81,389.44 470.41,391.25 C470.32,391.66 470.14,392.23 470.00,392.50 C469.86,392.77 469.64,393.45 469.50,394.00 C469.36,394.55 469.14,395.23 469.00,395.50 C468.86,395.77 468.69,396.41 468.62,396.92 C468.56,397.42 468.19,398.14 467.82,398.51 C467.44,398.89 467.38,399.83 467.68,400.60 C468.42,402.55 514.00,402.70 514.00,400.75 ZM 628.51 473.75 C628.27,473.06 626.92,468.31 625.50,463.18 C624.09,458.06 622.55,453.11 622.08,452.18 C621.62,451.26 620.48,447.35 619.54,443.50 C618.61,439.65 617.43,436.07 616.92,435.55 C616.42,435.03 616.00,433.64 616.00,432.47 C616.00,430.23 610.56,410.90 608.97,407.50 C608.45,406.40 607.14,401.45 606.04,396.50 C604.95,391.55 602.66,382.77 600.96,377.00 C597.59,365.57 592.93,349.01 588.02,331.00 C586.30,324.67 583.60,315.23 582.01,310.00 C578.80,299.41 577.01,292.89 577.01,291.73 C577.00,291.31 586.53,291.08 598.19,291.23 L 619.37 291.50 L 620.23 295.00 C620.70,296.92 621.35,299.17 621.68,300.00 C622.01,300.83 622.40,302.17 622.56,303.00 C623.27,306.87 624.19,310.84 625.22,314.50 C625.83,316.70 626.46,318.95 626.60,319.50 C626.75,320.05 627.31,321.93 627.84,323.67 C628.38,325.42 628.59,327.08 628.31,327.36 C628.03,327.64 628.17,328.46 628.62,329.18 C629.07,329.91 629.57,331.40 629.72,332.50 C630.33,336.93 632.31,344.57 633.12,345.59 C633.60,346.19 633.76,346.91 633.48,347.19 C633.20,347.47 633.61,349.22 634.38,351.10 C635.16,352.97 636.08,356.52 636.44,359.00 C636.80,361.48 639.92,374.75 643.37,388.50 C648.25,407.89 650.03,413.57 651.33,413.82 C652.59,414.07 653.00,413.42 653.00,411.19 C653.00,409.56 653.67,406.94 654.49,405.36 C655.32,403.79 655.99,401.13 655.99,399.45 C656.00,397.77 656.41,395.97 656.91,395.45 C657.97,394.34 663.00,375.71 663.00,372.90 C663.00,371.84 663.44,370.19 663.98,369.24 C664.86,367.66 669.49,350.90 676.33,324.50 C677.75,319.00 679.20,312.59 679.55,310.26 C679.89,307.92 680.55,305.78 681.00,305.50 C681.46,305.22 682.63,301.60 683.60,297.47 L 685.38 289.96 L 704.37 290.23 L 723.36 290.50 L 724.23 293.50 C724.70,295.15 725.31,297.62 725.58,299.00 C725.84,300.38 726.34,302.17 726.68,303.00 C727.02,303.83 727.47,305.40 727.68,306.50 C727.89,307.60 730.12,315.92 732.65,325.00 C735.17,334.08 737.67,343.30 738.21,345.50 C738.74,347.70 739.44,350.17 739.75,351.00 C740.48,352.89 740.44,352.74 741.39,357.49 C741.82,359.69 742.47,361.94 742.81,362.49 C743.16,363.05 743.53,364.08 743.64,364.79 C743.95,366.86 749.05,386.36 749.70,388.00 C750.49,389.97 750.83,391.08 751.39,393.50 C751.64,394.60 751.93,395.73 752.04,396.00 C752.14,396.27 752.34,396.95 752.46,397.50 C752.59,398.05 752.82,398.84 752.97,399.25 C753.13,399.66 753.36,400.45 753.50,401.00 C753.64,401.55 753.84,402.11 753.96,402.25 C754.07,402.39 754.28,403.40 754.41,404.50 C754.69,406.86 758.01,417.00 758.50,417.00 C758.95,417.00 765.40,389.28 766.99,380.50 C767.69,376.65 768.62,373.04 769.06,372.48 C770.13,371.11 775.00,351.33 775.00,348.34 C775.00,347.04 775.45,345.19 775.99,344.24 C777.23,342.08 782.55,320.27 783.50,313.50 C783.88,310.75 784.51,308.27 784.89,308.00 C785.27,307.73 786.46,303.90 787.54,299.50 L 789.50 291.50 L 810.79 291.23 L 832.07 290.96 L 831.69 293.23 C831.48,294.48 831.02,296.17 830.67,297.00 C830.31,297.83 829.86,299.40 829.66,300.50 C829.46,301.60 829.02,303.17 828.68,304.00 C828.34,304.83 827.80,306.85 827.48,308.50 C826.76,312.19 826.22,314.42 825.95,314.75 C825.84,314.89 825.67,315.34 825.56,315.75 C825.46,316.16 824.40,319.65 823.22,323.50 C822.03,327.35 820.86,331.63 820.61,333.00 C820.35,334.38 820.08,335.50 820.00,335.50 C819.92,335.50 819.66,336.62 819.43,338.00 C819.20,339.38 818.34,342.30 817.53,344.50 C816.08,348.44 814.99,352.17 806.92,381.00 C804.68,388.98 802.19,397.75 801.37,400.50 C800.56,403.25 799.76,406.17 799.60,407.00 C799.43,407.83 799.02,409.17 798.68,410.00 C798.34,410.83 797.16,414.88 796.05,419.00 C794.95,423.12 793.41,428.52 792.64,431.00 C791.87,433.48 791.22,435.73 791.19,436.00 C791.16,436.27 790.89,437.17 790.60,438.00 C790.31,438.83 788.91,443.77 787.47,449.00 C786.04,454.23 783.75,462.21 782.37,466.75 L 779.88 475.00 L 759.91 475.00 C744.80,475.00 739.84,474.70 739.56,473.75 C734.13,455.88 730.61,444.89 729.52,442.50 C728.78,440.85 727.85,437.70 727.46,435.50 C726.69,431.09 722.18,414.78 713.51,385.00 C710.38,374.27 707.22,363.32 706.48,360.65 C705.15,355.88 704.33,354.26 703.66,355.08 C703.48,355.31 702.09,360.00 700.58,365.50 C699.07,371.00 696.57,379.77 695.03,385.00 C693.48,390.23 690.34,401.02 688.05,409.00 C685.75,416.98 683.01,426.47 681.95,430.10 C680.90,433.73 679.87,437.56 679.67,438.60 C679.47,439.65 678.79,441.77 678.15,443.32 C677.52,444.86 677.00,446.53 677.00,447.01 C677.00,447.50 675.89,451.42 674.53,455.72 C673.17,460.02 671.92,464.43 671.75,465.52 C671.58,466.61 671.18,467.95 670.86,468.50 C670.54,469.05 669.98,470.74 669.62,472.25 L 668.96 475.00 L 648.95 475.00 C633.84,475.00 628.83,474.69 628.51,473.75 ZM 849.00 383.50 C849.00,333.17 848.89,291.66 848.75,291.25 C848.61,290.84 876.48,290.38 910.69,290.24 L 972.88 289.98 L 973.49 294.24 C973.83,296.58 973.97,303.90 973.80,310.50 L 973.50 322.50 L 931.25 322.76 L 889.00 323.02 L 889.00 345.51 L 889.00 368.00 L 927.50 368.00 L 966.00 368.00 L 966.00 383.99 L 966.00 399.98 L 927.75 400.24 L 889.50 400.50 L 889.24 437.75 L 888.98 475.00 L 868.99 475.00 L 849.00 475.00 L 849.00 383.50 Z" fill="rgb(254,254,254)"/>
</g>
</svg>