<?xml version="1.0" standalone="no"?>
<!DOCTYPE svg PUBLIC "-//W3C//DTD SVG 20010904//EN"
 "http://www.w3.org/TR/2001/REC-SVG-20010904/DTD/svg10.dtd">
<svg version="1.0" xmlns="http://www.w3.org/2000/svg"
 width="2752.000000pt" height="1536.000000pt" viewBox="0 0 2752.000000 1536.000000"
 preserveAspectRatio="xMidYMid meet">

<g transform="translate(0.000000,1536.000000) scale(0.100000,-0.100000)"
fill="#000000" stroke="none">
<path d="M8967 14038 c-279 -20 -559 -120 -812 -288 -154 -103 -365 -314 -465
-465 -143 -216 -234 -446 -269 -680 -11 -76 -25 -379 -41 -925 -31 -1025 -132
-1662 -357 -2235 -143 -365 -321 -643 -560 -876 -287 -279 -620 -434 -1026
-475 l-57 -5 2 -452 3 -452 100 -7 c189 -13 356 -62 545 -159 337 -174 605
-460 805 -859 190 -380 319 -820 420 -1440 60 -365 118 -1020 145 -1625 6
-126 17 -276 26 -333 65 -442 270 -801 619 -1087 133 -108 173 -135 306 -201
196 -97 393 -152 629 -174 81 -8 1512 -10 4875 -8 l4760 4 115 22 c248 48 497
151 685 284 121 85 302 262 391 381 131 174 227 375 279 582 43 173 52 249 70
645 55 1197 160 1912 366 2517 110 321 199 507 352 737 95 142 305 360 427
443 256 173 503 260 785 276 l50 2 3 453 c1 248 -1 452 -5 453 -5 0 -35 2 -68
4 -306 18 -670 174 -921 393 -186 162 -341 378 -495 687 -121 244 -208 489
-284 800 -80 326 -107 498 -150 940 -31 332 -42 550 -65 1300 -10 338 -22 435
-68 596 -77 265 -214 500 -406 697 -282 290 -576 447 -968 519 -87 16 -416 17
-4868 17 -2626 1 -4819 -2 -4873 -6z m1544 -4898 c77 -212 190 -520 251 -685
207 -563 279 -760 404 -1105 119 -327 176 -483 348 -952 41 -112 102 -277 134
-368 33 -91 63 -173 67 -183 7 -16 -16 -17 -435 -15 l-442 3 -80 230 c-43 127
-105 307 -136 400 l-57 170 -716 3 -716 2 -86 -257 c-47 -142 -108 -323 -136
-403 l-49 -145 -436 -3 -435 -2 25 67 c14 38 52 142 84 233 64 182 140 390
379 1045 258 709 397 1087 470 1285 37 102 140 384 227 628 l158 442 519 -2
518 -3 140 -385z m2002 38 c48 -194 127 -517 176 -718 127 -516 371 -1493 374
-1497 4 -3 87 291 132 467 18 69 57 217 88 330 31 113 99 365 151 560 52 195
114 425 136 510 54 198 145 545 167 633 l17 67 380 0 381 0 38 -142 c20 -79
62 -231 91 -338 108 -395 166 -606 362 -1335 143 -531 206 -747 215 -738 4 4
28 96 53 203 25 107 127 526 226 930 181 737 236 958 308 1255 l39 160 433 3
c355 2 431 0 427 -11 -6 -15 -85 -293 -246 -867 -62 -217 -127 -449 -147 -515
-19 -66 -63 -221 -97 -345 -35 -124 -175 -615 -312 -1092 l-249 -868 -398 0
c-219 0 -401 -1 -405 -2 -7 -3 -76 218 -179 577 -25 88 -77 264 -114 390 -38
127 -94 318 -125 425 -147 508 -269 930 -282 983 -9 31 -19 57 -22 57 -4 0
-37 -107 -74 -237 -36 -131 -79 -285 -95 -343 -48 -172 -141 -497 -178 -620
-19 -63 -59 -200 -89 -305 -29 -104 -89 -311 -133 -460 -44 -148 -92 -314
-107 -367 l-28 -98 -407 0 -407 0 -38 143 c-21 78 -55 198 -76 267 -20 69 -63
217 -94 330 -31 113 -72 255 -90 315 -19 61 -77 263 -130 450 -52 187 -136
482 -185 655 -49 173 -132 470 -185 660 -54 190 -130 461 -171 602 -41 142
-74 262 -74 268 0 7 149 10 428 10 l428 0 87 -352z m7027 27 l0 -325 -851 0
-850 0 5 -282 c3 -156 6 -358 6 -450 l0 -168 765 0 765 0 0 -325 c0 -179 -3
-326 -7 -326 -5 -1 -350 -3 -768 -3 l-760 -2 0 -747 0 -747 -407 0 -408 0 0
1828 c0 1005 -3 1837 -6 1850 l-6 22 1261 0 1261 0 0 -325z"/>
<path d="M9607 8007 c-131 -391 -238 -715 -237 -719 0 -5 216 -8 480 -8 376 0
480 3 480 12 0 20 -472 1428 -479 1428 -3 0 -113 -321 -244 -713z"/>
</g>
</svg>
